<?xml version="1.0" encoding="UTF-8" standalone="no"?>
<!-- Created with Inkscape (http://www.inkscape.org/) -->

<svg
   xmlns:dc="http://purl.org/dc/elements/1.1/"
   xmlns:cc="http://creativecommons.org/ns#"
   xmlns:rdf="http://www.w3.org/1999/02/22-rdf-syntax-ns#"
   xmlns:svg="http://www.w3.org/2000/svg"
   xmlns="http://www.w3.org/2000/svg"
   xmlns:sodipodi="http://sodipodi.sourceforge.net/DTD/sodipodi-0.dtd"
   xmlns:inkscape="http://www.inkscape.org/namespaces/inkscape"
   width="1318.4341mm"
   height="146.76274mm"
   viewBox="0 0 1318.4341 146.76275"
   version="1.1"
   id="svg10536"
   inkscape:version="0.92.5 (2060ec1f9f, 2020-04-08)"
   sodipodi:docname="duty_cycle_50.svg">
  <defs
     id="defs10530" />
  <sodipodi:namedview
     id="base"
     pagecolor="#ffffff"
     bordercolor="#666666"
     borderopacity="1.0"
     inkscape:pageopacity="0.0"
     inkscape:pageshadow="2"
     inkscape:zoom="0.175"
     inkscape:cx="1989.5515"
     inkscape:cy="512.3397"
     inkscape:document-units="mm"
     inkscape:current-layer="g14566"
     showgrid="false"
     fit-margin-top="0"
     fit-margin-left="0"
     fit-margin-right="0"
     fit-margin-bottom="0"
     inkscape:window-width="1918"
     inkscape:window-height="1057"
     inkscape:window-x="1920"
     inkscape:window-y="0"
     inkscape:window-maximized="0" />
  <metadata
     id="metadata10533">
    <rdf:RDF>
      <cc:Work
         rdf:about="">
        <dc:format>image/svg+xml</dc:format>
        <dc:type
           rdf:resource="http://purl.org/dc/dcmitype/StillImage" />
        <dc:title></dc:title>
      </cc:Work>
    </rdf:RDF>
  </metadata>
  <g
     inkscape:label="Layer 1"
     inkscape:groupmode="layer"
     id="layer1"
     transform="translate(578.50092,-54.217759)">
    <g
       id="g14502">
      <g
         id="g14566"
         transform="rotate(-1.1071873,86.17857,132.95834)">
        <path
           id="path9310"
           d="m 562.46402,209.67859 c 1.27,-0.56444 2.6106,-2.15194 2.6106,-3.06916 0,-0.38806 0.2117,-0.67028 0.4586,-0.67028 1.27,0 5.1858,-8.71361 5.1858,-11.57111 0,-0.59972 0.1764,-1.86972 0.3528,-2.78695 0.3881,-1.79916 0.4939,-2.61055 1.0584,-7.69055 0.635,-6.06778 1.1288,-9.525 1.4463,-10.37167 0.4939,-1.27 -0.2116,-2.96333 -1.5522,-3.66889 -1.1641,-0.635 -1.6933,-0.67028 -9.5603,-0.635 -3.8452,0.0353 -4.3391,0.10584 -5.468,0.88195 -3.6689,2.43416 -5.327,5.715 -5.4328,10.68916 l -0.035,2.68111 1.7286,1.55223 c 0.9525,0.84666 2.0814,1.62277 2.4694,1.72861 0.3881,0.14111 1.1289,0.52916 1.6228,0.88194 0.5645,0.38806 1.6934,0.67028 2.9986,0.74084 l 2.0814,0.10583 -0.071,2.18722 c -0.035,1.27 -0.3175,2.82222 -0.7408,3.70417 -0.3528,0.84666 -0.7761,2.29305 -0.9172,3.21028 -0.1764,1.09361 -0.4939,1.76388 -0.9525,2.01083 -0.3881,0.21167 -0.6703,0.74083 -0.6703,1.23472 0,0.45861 -0.2469,1.05833 -0.5292,1.37583 -0.2822,0.28223 -0.5291,0.67028 -0.5291,0.88195 0,0.21166 -0.2117,0.38805 -0.4939,0.38805 -0.2822,0 -0.5645,0.21167 -0.6703,0.45861 -0.5644,1.51695 -3.2103,-3.28083 -3.1397,-5.64444 0.035,-0.77611 -0.1059,-1.16417 -0.4234,-1.16417 -0.2822,0 -0.7408,-0.42333 -1.0583,-0.91722 -0.5644,-0.84666 -0.7408,-0.88194 -2.6105,-0.67028 -1.6228,0.17639 -2.2225,0.45862 -2.9987,1.30528 -1.0583,1.12889 -1.0583,0.91722 -0.5291,4.93889 0.035,0.3175 0.7408,1.51694 1.5169,2.64583 1.6934,2.39889 4.6567,4.55084 7.3378,5.25639 2.3283,0.59972 6.1031,0.59972 7.5142,0 z m -1.2347,-30.86805 c 0.7409,-1.83445 1.8697,-3.21028 2.3284,-2.75167 0.071,0.10583 -0.035,0.88195 -0.2823,1.69333 -0.2116,0.84667 -0.4586,1.83445 -0.4939,2.18723 -0.035,0.35277 -0.5291,0.91722 -1.0936,1.27 -1.3758,0.84666 -1.4816,0.28222 -0.4586,-2.39889 z"
           inkscape:connector-curvature="0"
           style="stroke-width:0.03527778;fill:#ff6600" />
        <path
           id="path9312"
           d="m 411.96908,204.28109 c 0.2822,-0.10583 1.51693,-0.635 2.75166,-1.19944 2.43417,-1.12889 3.06917,-2.01084 3.4925,-5.11528 0.17637,-1.27 0.0353,-1.97555 -0.635,-3.38667 l -0.81139,-1.76388 1.16416,-2.11667 c 0.91723,-1.69333 1.1289,-2.36361 0.9525,-3.31611 -0.38806,-1.86972 -1.51693,-4.16278 -2.3989,-4.72722 -4.65666,-2.96334 -4.2686,-2.82223 -8.78416,-2.82223 -3.88054,0 -4.33917,0.0706 -5.60917,0.88195 -1.34054,0.84666 -1.37583,0.91722 -0.98777,2.01083 0.21167,0.635 1.16417,1.905 2.11667,2.82222 1.34056,1.30528 1.69333,1.905 1.69333,2.78695 0,1.23472 1.51694,4.05694 3.175,5.92666 0.56444,0.635 1.05834,1.41112 1.05834,1.69334 0,1.41111 -2.92807,2.32833 -4.3039,1.37583 -1.05834,-0.74083 -3.3161,-1.37583 -4.09221,-1.12889 -0.49389,0.17639 -0.59973,0.52917 -0.49389,1.62278 0.0706,0.77611 0.24693,1.41111 0.38806,1.41111 0.1411,0 0.42333,0.35278 0.635,0.81139 0.42333,0.88194 3.81,2.71639 7.05554,3.77472 2.25779,0.74083 2.7164,0.77611 3.63363,0.45861 z"
           inkscape:connector-curvature="0"
           style="stroke-width:0.03527778" />
        <path
           id="path9314"
           d="m 432.64185,203.1522 c 0.56447,-0.10583 1.51697,-0.56444 2.08137,-0.9525 1.0231,-0.74083 1.0231,-0.77611 0.5292,-2.25777 -0.4233,-1.27 -0.7408,-1.5875 -2.0814,-2.18723 -0.88194,-0.35277 -2.08141,-0.635 -2.64584,-0.56444 -0.8114,0.0706 -1.1289,-0.0353 -1.19944,-0.56444 -0.21166,-0.98778 0.3175,-1.30528 2.99861,-1.79917 1.41107,-0.28222 3.03387,-0.84667 3.80997,-1.37583 0.7409,-0.49389 1.517,-0.91723 1.7639,-0.91723 0.5292,0 1.9403,-1.48166 1.9403,-2.04611 0,-0.84666 -2.8575,-3.24555 -3.8806,-3.24555 -1.7991,0 -3.10441,-0.67028 -3.24551,-1.69334 -0.3175,-1.76389 -0.45863,-2.01083 -1.51696,-2.50472 -0.59971,-0.3175 -1.12887,-0.635 -1.23471,-0.74083 -0.52916,-0.59972 -2.89279,-1.02306 -4.37446,-0.84667 -1.62277,0.24695 -1.65804,0.28222 -1.44637,1.27 0.1411,0.59972 0.0705,1.23472 -0.21167,1.55222 -0.21166,0.28223 -0.3175,0.59973 -0.21166,0.74084 0.4586,0.42333 -0.84667,2.18722 -1.7639,2.39889 -1.27,0.28222 -2.54,1.86972 -1.83444,2.32833 0.49387,0.28222 0.49387,1.27 0.21167,6.20889 -0.0706,0.81139 0,1.44639 0.1411,1.41111 0.10584,-0.0353 1.27,0.98778 2.54,2.29305 1.27,1.30528 2.8575,2.57528 3.4925,2.8575 1.4464,0.59973 4.65667,0.9525 6.13834,0.635 z"
           inkscape:connector-curvature="0"
           style="stroke-width:0.03527778" />
        <path
           id="path9316"
           d="m 128.08878,194.2622 c 0.38807,-0.21166 0.84667,-0.42333 1.05833,-0.49388 0.91724,-0.17639 1.65807,-0.635 1.65807,-0.9525 0,-0.21167 0.42333,-0.74084 0.91723,-1.23473 l 0.9172,-0.84666 -0.9525,-1.55223 c -0.98776,-1.69333 -1.02303,-1.72861 -3.28083,-1.5875 -0.9172,0.0353 -1.48167,-0.10583 -1.48167,-0.35277 0,-0.21167 0.635,-1.55223 1.41113,-2.96334 1.12887,-2.08139 1.41111,-2.92805 1.41111,-4.40972 0,-3.4925 -1.7639,-5.46805 -5.29167,-5.92667 -0.67027,-0.0705 -1.5875,-0.3175 -2.01083,-0.52916 -1.09361,-0.52917 -5.85611,-0.17639 -6.91444,0.52916 -0.8114,0.52917 -1.55223,2.71639 -0.88194,2.71639 0.14111,0 0.56444,0.59973 0.9525,1.34056 0.35277,0.70555 1.16417,1.5875 1.76388,1.94028 1.05833,0.635 2.11666,2.01083 1.51693,2.01083 -0.17637,0 -0.49387,0.38806 -0.70554,0.88194 -0.21166,0.45862 -0.88196,1.09362 -1.48166,1.41112 -0.56444,0.28222 -1.05834,0.77611 -1.05834,1.05833 0,0.28222 -0.42333,0.77611 -0.91723,1.12889 -0.81137,0.52916 -0.91723,0.77611 -0.74083,2.08139 0.1764,1.69333 2.0814,3.88055 4.02167,4.69194 0.635,0.24695 1.16416,0.56445 1.16416,0.70556 0,0.10583 0.52917,0.24694 1.1289,0.28222 0.635,0.0353 2.50473,0.14111 4.16277,0.28222 1.97556,0.14111 3.21027,0.0706 3.6336,-0.21167 z"
           inkscape:connector-curvature="0"
           style="stroke-width:0.03527778" />
        <path
           id="path9318"
           d="m 149.32601,192.78054 c 2.43417,-1.34056 3.06917,-2.32834 2.6811,-4.1275 -0.21166,-1.02306 -0.42333,-1.27 -1.44637,-1.51695 -0.67029,-0.17639 -1.905,-0.3175 -2.71639,-0.35277 -1.69334,-0.0706 -2.15194,-0.42334 -1.65807,-1.19945 0.28223,-0.42333 2.99863,-1.55222 4.90363,-1.97555 0.17637,-0.0706 0.88194,-0.38806 1.48167,-0.77612 1.30527,-0.77611 1.51693,-1.76388 0.4586,-2.11666 -0.42333,-0.14111 -0.8114,-0.635 -0.91723,-1.23472 -0.17637,-0.81139 -0.4586,-1.02306 -1.51694,-1.19945 -1.65806,-0.24694 -2.92806,-1.16417 -2.7164,-1.905 0.10584,-0.35278 -0.10583,-1.05833 -0.49387,-1.65805 -0.38806,-0.56445 -0.70556,-0.9525 -0.70556,-0.81139 0,0.14111 -0.52917,-0.0353 -1.16417,-0.42334 -0.7761,-0.49389 -1.7639,-0.70555 -3.13973,-0.70555 -2.29304,0 -2.8575,0.49389 -3.3161,2.99861 -0.28226,1.55222 -1.97557,3.45722 -2.82226,3.10444 -0.70551,-0.24694 -0.67024,1.97556 0.0706,2.50473 0.3175,0.24694 0.67027,1.30527 0.84667,2.75166 0.28223,2.46945 2.18723,6.24417 3.10443,6.27945 0.24696,0 0.52917,0.24694 0.6703,0.56444 0.21166,0.56445 3.81,2.39889 5.3975,2.75167 0.5997,0.17639 1.51693,-0.14111 2.9986,-0.9525 z"
           inkscape:connector-curvature="0"
           style="stroke-width:0.03527778" />
        <path
           id="path9320"
           d="m 542.00292,191.51054 c 0.5998,-0.3175 1.3759,-0.81139 1.7639,-1.09361 0.7409,-0.56445 3.81,-6.63223 4.5861,-8.99584 0.8114,-2.61055 1.8698,-5.18583 2.4342,-6.0325 0.2822,-0.45861 0.5292,-1.16416 0.5292,-1.55222 0,-0.635 0.1058,-0.67028 0.7408,-0.35278 0.5997,0.35278 0.7056,0.3175 0.635,-0.24694 -0.071,-0.35278 0.035,-0.98778 0.1764,-1.44639 0.3528,-1.02306 -0.7761,-2.64583 -2.2578,-3.24556 -1.6228,-0.67027 -4.7625,-0.28222 -5.8208,0.70556 -0.8467,0.81139 -1.8345,2.96333 -2.0461,4.48028 -0.071,0.42333 -0.3881,1.09361 -0.7056,1.44639 -0.3175,0.35277 -0.8819,1.44639 -1.1994,2.39889 -0.4586,1.44638 -1.7992,3.73944 -1.905,3.28083 0,-0.0706 -0.071,-1.02306 -0.1411,-2.11667 -0.1059,-2.25778 -0.8114,-3.81 -2.1873,-4.90361 -0.8466,-0.67028 -1.27,-0.74083 -3.1044,-0.56444 -1.1642,0.10583 -2.6811,0.38805 -3.3514,0.635 -0.6703,0.24694 -1.27,0.45861 -1.3053,0.45861 -0.035,0 0.1411,1.5875 0.3881,3.4925 0.2469,1.905 0.388,3.81 0.3175,4.23333 -0.1059,0.45861 0.1411,1.02306 0.5644,1.41111 0.4234,0.38806 0.7409,1.02306 0.7409,1.44639 0,1.76389 4.0216,5.92667 6.2441,6.45583 2.6811,0.70556 3.81,0.70556 4.9036,0.10584 z"
           inkscape:connector-curvature="0"
           style="stroke-width:0.03527778;fill:#ff6600" />
        <path
           id="path9322"
           d="m 722.06072,191.58109 c 0,-0.17639 0.635,-0.67027 1.4464,-1.16416 1.3405,-0.84667 3.1397,-2.78695 3.1397,-3.42195 0,-0.14111 0.9525,-1.30528 2.152,-2.57528 1.1641,-1.27 2.7869,-3.38666 3.5983,-4.7625 0.7761,-1.34055 2.2578,-3.35138 3.2455,-4.40972 2.1873,-2.29305 3.7042,-4.62139 3.7042,-5.64444 0,-2.11667 -2.0814,-3.45722 -5.5033,-3.59834 -2.4695,-0.10583 -2.5047,-0.10583 -4.3392,1.44639 -0.9878,0.84667 -2.1167,2.11667 -2.5047,2.82223 -0.3528,0.70555 -1.27,1.94027 -2.0108,2.75166 -1.7639,1.905 -3.3162,3.84528 -4.3039,5.50334 -0.9525,1.5875 -1.5875,1.34055 -1.9403,-0.77612 -0.1058,-0.74083 -0.4586,-1.79916 -0.7408,-2.36361 -0.2823,-0.56444 -0.5292,-1.30527 -0.5292,-1.62277 0,-0.35278 -0.2822,-0.77612 -0.6703,-0.9525 -0.3528,-0.21167 -0.7761,-0.77612 -0.8819,-1.27 -0.3175,-1.27 -3.5984,-2.78695 -5.4328,-2.54 -2.787,0.38805 -3.4925,0.88194 -2.8575,2.04611 0.1764,0.35277 0.3175,1.02305 0.3175,1.51694 0,0.49389 0.2117,1.41111 0.4939,2.04611 0.7761,1.83445 1.5875,4.83306 2.0108,7.33778 0.1764,1.27 0.7056,2.99861 1.0936,3.84528 0.9878,2.04611 3.422,4.48028 5.2917,5.25639 1.5875,0.67027 5.2211,1.05833 5.2211,0.52916 z"
           inkscape:connector-curvature="0"
           style="stroke-width:0.03527778;fill:#ff6600" />
        <path
           id="path9324"
           d="m 600.35242,189.67609 c 2.54,-0.45861 4.7625,-1.27 4.6566,-1.69333 -0.035,-0.21167 0.247,-0.70556 0.635,-1.09361 0.5292,-0.52917 0.6703,-0.98778 0.4939,-1.69333 -0.4939,-2.04612 -0.7761,-2.15195 -6.7733,-2.11667 -7.3025,0 -10.4069,0.42333 -11.0067,1.51694 -0.388,0.74084 -0.3175,0.98778 0.8114,2.36361 1.8697,2.25778 3.7747,3.10445 6.985,3.06917 1.4464,-0.0353 3.3161,-0.17639 4.1981,-0.35278 z"
           inkscape:connector-curvature="0"
           style="stroke-width:0.03527778;fill:#ff6600" />
        <path
           id="path9326"
           d="m 681.49132,189.14693 c 1.0583,-0.28223 2.4341,-0.74084 3.0691,-1.02306 0.5997,-0.28222 1.1995,-0.52917 1.3759,-0.52917 0.1411,0 0.7761,-0.38805 1.4111,-0.88194 0.635,-0.49389 1.5522,-1.02306 2.0461,-1.23472 0.4939,-0.17639 1.3405,-1.02306 1.8697,-1.83445 0.5292,-0.84666 1.0936,-1.5875 1.1994,-1.69333 0.3175,-0.24694 0.7409,-2.71639 0.7409,-4.40972 0,-2.11667 -0.4234,-3.66889 -1.1289,-4.05695 -0.3528,-0.21166 -0.7056,-0.70555 -0.7761,-1.12889 -0.071,-0.45861 -0.3881,-0.84666 -0.8114,-0.91722 -0.3881,-0.0705 -1.27,-0.56444 -1.9403,-1.09361 -0.6703,-0.49389 -1.6933,-0.98778 -2.293,-1.09361 -0.7409,-0.10583 -1.0937,-0.38806 -1.1642,-0.88194 -0.1411,-0.98778 1.6228,-1.79917 5.7503,-2.64584 1.7991,-0.38805 4.7625,-1.16416 6.5616,-1.76389 1.7992,-0.59972 3.6689,-1.09361 4.0923,-1.12889 0.4586,-0.0706 0.8113,-0.21166 0.8113,-0.35277 0,-0.14111 0.5292,-0.38806 1.1289,-0.56445 1.0231,-0.28222 1.1642,-0.45861 1.0936,-1.44639 -0.071,-1.55222 -0.9525,-2.39889 -3.0338,-3.03389 -2.2931,-0.67027 -7.5848,-0.67027 -10.9009,0 -4.9389,1.02306 -10.9008,2.64584 -12.2061,3.31612 -3.1397,1.62277 -5.3269,5.715 -4.198,7.90222 0.8113,1.55222 4.8683,5.15055 6.8438,6.06778 1.7992,0.81138 1.8698,0.91722 1.8698,2.2225 0,1.23472 -0.247,1.5875 -2.152,3.38666 -3.4925,3.24556 -3.7394,3.31611 -8.8547,2.46945 -3.8453,-0.635 -0.2117,4.79777 3.9158,5.85611 0.882,0.21166 1.905,0.56444 2.2225,0.74083 0.7761,0.38806 1.0584,0.38806 3.4573,-0.24694 z"
           inkscape:connector-curvature="0"
           style="stroke-width:0.03527778;fill:#ff6600" />
        <path
           id="path9328"
           d="m 522.63542,189.00582 c 0.4586,-0.17639 0.8114,-0.635 0.8114,-0.98778 0,-0.35278 0.1764,-0.81139 0.3881,-1.02306 1.1289,-1.12889 0.5644,-14.14639 -0.7761,-17.39194 -0.7761,-1.79917 -2.4695,-3.88056 -3.175,-3.88056 -0.1764,0 -0.4939,-0.28222 -0.7056,-0.59972 -0.2822,-0.49389 -0.8467,-0.635 -2.54,-0.59972 -3.2455,0.0705 -4.445,0.42333 -5.9619,1.83444 -1.517,1.41111 -3.1045,3.91584 -3.1045,4.93889 0,0.35278 -0.3175,0.9525 -0.7055,1.30528 -0.3881,0.35278 -0.7056,0.84667 -0.7056,1.09361 0,0.24694 -0.1058,0.49389 -0.2822,0.56444 -0.1411,0.0706 -0.635,0.81139 -1.0936,1.69334 -0.4586,0.88194 -1.5522,2.29305 -2.3989,3.175 -0.8114,0.84666 -1.517,1.76389 -1.517,2.04611 0,0.49389 -0.3527,1.02305 -1.9402,2.71639 -1.3053,1.41111 -1.2348,2.46944 0.2822,3.35139 0.635,0.35277 1.3758,0.91722 1.6933,1.19944 0.2822,0.3175 1.27,0.67028 2.152,0.77611 l 1.5875,0.21167 1.5522,-1.97556 c 1.0936,-1.41111 1.6933,-1.905 2.0814,-1.72861 0.9525,0.45861 6.7733,0.52917 7.62,0.10584 0.6703,-0.38806 0.9878,-0.28223 2.3989,0.67027 0.9172,0.635 1.7286,1.51695 1.8344,1.97556 0.247,0.9525 1.0583,1.09361 2.5047,0.52917 z m -11.5358,-8.99584 c 0,-0.14111 0.635,-1.16416 1.4111,-2.36361 0.8114,-1.16417 1.6581,-2.68111 1.9403,-3.31611 1.0583,-2.54 1.9403,-0.81139 1.9403,3.77472 v 1.69334 l -1.8698,0.14111 c -0.9877,0.0705 -2.1872,0.14111 -2.6458,0.17639 -0.4233,0.0353 -0.7761,0 -0.7761,-0.10584 z"
           inkscape:connector-curvature="0"
           style="stroke-width:0.03527778;fill:#ff6600" />
        <path
           id="path9330"
           d="m 645.86072,187.94748 c 0.6703,-0.10583 1.6933,-0.52916 2.2931,-0.88194 3.2102,-2.01084 2.3989,-4.26861 -1.6228,-4.62139 -1.0231,-0.10583 -1.9756,-0.24695 -2.152,-0.35278 -0.4938,-0.3175 -0.3175,-1.19944 0.247,-1.19944 0.3175,0 0.7055,-0.42334 0.8819,-0.91723 0.2117,-0.49388 0.9173,-1.5875 1.5875,-2.36361 0.6703,-0.77611 1.2348,-1.62277 1.2348,-1.905 0,-0.24694 0.388,-0.70555 0.8819,-1.02305 0.4939,-0.3175 0.8114,-0.67028 0.7408,-0.74084 -0.1058,-0.10583 0.1764,-0.77611 0.635,-1.48166 0.9173,-1.48167 1.4111,-2.57528 1.3053,-2.96334 0,-0.14111 0.1058,-0.56444 0.2822,-0.88194 0.4234,-0.81139 0.7761,-4.51556 0.4586,-4.83306 -0.1411,-0.10583 -0.2469,-0.42333 -0.2469,-0.635 0,-0.24694 -0.8819,-0.88194 -1.9403,-1.48166 -1.905,-1.05834 -2.0108,-1.05834 -6.8791,-1.02306 -3.5984,0.0353 -5.8562,0.28222 -8.2903,0.81139 -1.8345,0.42333 -3.5984,0.77611 -3.9159,0.84667 -0.7761,0.10583 -3.1397,1.76389 -3.1044,2.18722 0.035,1.41111 1.0231,3.88056 1.5522,4.02167 0.3528,0.0353 1.1289,0.42333 1.7286,0.77611 1.6581,0.98778 4.1275,0.88194 7.232,-0.38806 3.7041,-1.51694 3.7747,-1.44639 2.3636,1.34056 -0.7761,1.55222 -2.0108,3.13972 -3.5983,4.72722 -1.3406,1.27 -2.5048,2.54 -2.5753,2.82222 -1.3053,4.65667 -1.3053,5.3975 0,7.02028 0.5997,0.77611 1.7639,1.83444 2.5753,2.39889 1.3405,0.9525 1.7638,1.02305 4.3038,0.98778 1.517,0 3.3514,-0.10584 4.0217,-0.24695 z"
           inkscape:connector-curvature="0"
           style="stroke-width:0.03527778;fill:#ff6600" />
        <path
           id="path9332"
           d="m -193.32703,185.40748 c 0.52917,-0.45861 1.44638,-1.16416 2.04611,-1.62278 1.19943,-0.91722 1.27,-1.41111 0.52916,-2.89277 -0.635,-1.19945 -1.44639,-1.51695 -4.05696,-1.55223 l -1.94027,-0.0353 -0.10583,-1.48167 c -0.10583,-1.30528 0,-1.55222 0.88196,-1.97556 0.52914,-0.28222 1.69333,-0.635 2.54,-0.77611 2.46944,-0.42333 3.98637,-2.64583 2.71637,-4.02166 -0.3175,-0.35278 -0.56443,-0.77611 -0.56443,-0.9525 0,-0.17639 -0.52917,-0.56445 -1.16417,-0.84667 -0.70556,-0.3175 -1.1289,-0.81139 -1.16417,-1.23472 -0.0706,-2.46945 -2.43416,-3.98639 -6.4911,-4.16278 l -1.94029,-0.0706 -0.91721,2.64584 c -0.8114,2.29305 -1.09363,2.75166 -2.29306,3.42194 -0.74084,0.45861 -1.51694,0.84667 -1.72861,0.91722 -0.17639,0.0706 0.0705,0.74084 0.56444,1.51695 0.84667,1.27 0.91723,1.62278 0.7761,3.91583 -0.17637,2.18722 -0.10583,2.64584 0.56446,3.59834 0.42331,0.59972 0.70554,1.09361 0.56444,1.09361 -0.10583,0 0.49387,0.70555 1.34056,1.5875 0.88194,0.88194 1.76388,1.5875 2.01081,1.5875 0.21169,0 0.91723,0.38805 1.51696,0.84666 0.77611,0.59973 1.79917,0.91723 3.24554,1.09361 1.86973,0.17639 2.2225,0.10584 3.06919,-0.59972 z"
           inkscape:connector-curvature="0"
           style="stroke-width:0.03527778" />
        <path
           id="path9334"
           d="m -214.42315,181.73859 c 0.45862,-0.67027 0.70556,-1.905 0.9525,-4.83305 0.17639,-2.18722 0.38806,-4.48028 0.49389,-5.15056 0.1764,-0.81139 0.0353,-1.34055 -0.35277,-1.79916 -0.3175,-0.35278 -0.52919,-0.84667 -0.49389,-1.12889 0.35277,-2.11667 -5.22111,-4.48028 -7.12611,-2.99861 -0.49389,0.38805 -1.16419,1.5875 -1.09362,2.01083 0,0.10583 0.10583,2.32833 0.21166,4.93889 0.14113,2.61055 0.38807,5.25639 0.59973,5.85611 0.45861,1.41111 3.84527,4.02167 5.18584,4.02167 0.5997,-0.0353 1.19943,-0.35278 1.62277,-0.91723 z"
           inkscape:connector-curvature="0"
           style="stroke-width:0.03527778" />
        <path
           id="path9336"
           d="m 664.84022,180.89193 c 0.2116,-0.38806 0.4233,-1.02306 0.4233,-1.37584 0,-0.38805 0.1411,-0.81139 0.3528,-0.91722 0.8466,-0.52917 0.1411,-3.59833 -1.0936,-4.83305 -1.1642,-1.16417 -5.8562,-1.79917 -8.4314,-1.09362 -1.3406,0.35278 -1.3759,0.59973 -0.6703,3.31612 0.8114,3.175 3.9158,5.57388 7.1967,5.60916 1.3758,0 1.8697,-0.14111 2.2225,-0.70555 z"
           inkscape:connector-curvature="0"
           style="stroke-width:0.03527778;fill:#ff6600" />
        <path
           id="path9338"
           d="m 600.84632,178.73998 c -0.071,-0.14111 0.2469,-0.49389 0.7055,-0.77611 0.5292,-0.35278 0.882,-0.98778 0.9878,-1.79917 0.1058,-1.09361 0,-1.30527 -1.1994,-2.08138 -0.8114,-0.52917 -2.3637,-1.02306 -4.057,-1.27 -1.5169,-0.24695 -3.2103,-0.59973 -3.7747,-0.77612 -1.1642,-0.35277 -5.6092,-0.35277 -6.9145,0 -0.7408,0.21167 -0.9172,0.49389 -0.9877,1.72862 -0.1059,1.37583 -0.035,1.48166 1.2347,2.01083 0.7055,0.3175 1.5522,0.77611 1.8697,1.02305 0.2822,0.24695 1.4817,0.81139 2.6458,1.27 1.6934,0.70556 2.787,0.84667 5.8562,0.88195 2.0813,0.0353 3.7394,-0.0706 3.6336,-0.21167 z"
           inkscape:connector-curvature="0"
           style="stroke-width:0.03527778;fill:#ff6600" />
        <path
           id="path9340"
           d="m 425.58628,177.64637 c 0.635,-0.635 1.19946,-1.62278 1.34057,-2.2225 0.10583,-0.56444 0.42333,-2.25778 0.70556,-3.70417 0.24694,-1.44638 0.52917,-2.71638 0.56444,-2.82222 0.0706,-0.10583 0.10583,-0.42333 0.1411,-0.70555 0.0353,-0.42334 0.70556,-0.52917 3.4925,-0.59973 2.96337,-0.0353 3.49247,0.0353 3.66887,0.52917 0.635,2.04611 0.9878,2.54 2.3636,3.28083 1.517,0.77612 1.5523,0.77612 3.4925,0.17639 1.0584,-0.3175 2.2225,-0.91722 2.5753,-1.30527 0.3175,-0.35278 0.8467,-0.67028 1.1642,-0.67028 0.3175,0 1.7992,-0.70556 3.3514,-1.5875 1.5169,-0.88195 2.8928,-1.48167 3.0691,-1.37584 0.4587,0.28223 3.2103,-2.2225 3.7395,-3.35138 0.2469,-0.49389 0.4233,-1.69334 0.4586,-2.64584 0,-1.69333 -0.071,-1.83444 -2.4342,-4.16278 -1.6933,-1.65805 -2.8222,-2.46944 -3.6336,-2.61055 -0.635,-0.14111 -1.7286,-0.635 -2.3989,-1.16418 -0.6702,-0.52915 -1.9402,-1.30527 -2.8222,-1.7286 -0.8819,-0.45861 -2.1167,-1.19944 -2.7869,-1.65805 -1.6934,-1.23474 -3.3161,-1.16417 -4.2334,0.14111 -0.6702,0.9525 -0.7055,1.23472 -0.388,3.59833 0.2116,1.41111 0.2469,2.68111 0.1058,2.82222 -0.1764,0.17639 -4.37444,0.38806 -9.38388,0.49389 -5.00946,0.10583 -9.59556,0.28222 -10.16,0.42333 -0.635,0.10584 -1.02306,0.0353 -1.02306,-0.21166 0,-0.24695 -0.28223,-0.28222 -0.91723,-0.0353 -0.49387,0.21167 -1.48167,0.28222 -2.18721,0.17639 -1.23473,-0.17639 -5.00946,-0.28222 -25.11779,-0.70556 -4.7625,-0.10583 -10.9361,-0.28222 -13.75834,-0.38805 -2.8222,-0.10584 -7.3025,-0.24695 -9.9836,-0.3175 -3.0339,-0.10584 -5.08,-0.3175 -5.3975,-0.56445 -0.38806,-0.3175 -0.635,-0.28222 -1.02306,0.0353 -0.38804,0.3175 -1.12887,0.38806 -2.57527,0.21167 -1.0936,-0.14111 -3.9864,-0.3175 -6.42057,-0.38807 -2.43416,-0.0705 -6.06776,-0.21166 -8.11387,-0.3175 -2.04613,-0.10582 -8.14916,-0.35278 -13.58196,-0.56443 -5.43277,-0.21167 -10.68917,-0.42335 -11.64167,-0.52917 -2.1872,-0.21168 -10.7597,-0.635 -14.2875,-0.67029 l -2.64583,-0.0353 -0.0353,-1.5875 c -0.0353,-0.88195 -0.1764,-4.83306 -0.3175,-8.81945 -0.21167,-6.94972 -0.38807,-37.07695 -0.24697,-42.156952 0.0705,-1.340538 0,-3.986369 -0.1058,-5.820828 -0.10584,-1.834441 -0.2117,-4.339172 -0.2117,-5.573872 v -2.2225 l -2.11664,-2.046128 c -1.12889,-1.128872 -2.08139,-2.222501 -2.08139,-2.434171 0,-0.56444 -1.83447,-1.8697 -2.32834,-1.69333 -0.24693,0.10583 -0.98777,0.0353 -1.62277,-0.14111 -0.635,-0.21166 -3.56306,-0.42333 -6.49113,-0.52916 -2.96333,-0.0706 -5.75026,-0.3175 -6.24416,-0.4939 -1.37584,-0.52917 -8.96057,-0.4586 -18.2386,0.1764 -4.72724,0.3175 -19.75557,0.35277 -20.70807,0.0706 -0.70554,-0.24696 -9.10167,-0.59973 -17.7447,-0.8114 -1.83447,-0.0353 -5.00947,-0.24693 -7.05557,-0.49389 -2.04613,-0.21167 -4.6214,-0.28221 -5.75027,-0.17637 -1.09363,0.10583 -2.01086,0.0705 -2.01086,-0.10584 0,-0.28223 -3.73943,-0.28223 -16.75693,-0.10583 -10.12471,0.1411 -26.74057,-0.24696 -28.36334,-0.70557 -1.0936,-0.28223 -1.79919,-0.28223 -2.46946,-0.0353 -0.49387,0.21166 -1.72857,0.2822 -2.68107,0.17637 -2.32834,-0.24694 -2.2225,-0.24694 -6.84393,0 -2.2225,0.10583 -4.1275,0.3175 -4.2333,0.42333 -0.10584,0.10583 -0.45861,0.88196 -0.74084,1.7639 l -0.52916,1.55223 -1.83447,-1.7639 c -0.98777,-0.9525 -2.11664,-1.7639 -2.46946,-1.7639 -0.35277,0.0353 -1.12884,0.45863 -1.76384,0.9878 -1.05834,0.9172 -1.12893,1.16417 -1.51697,4.727199 -0.21169,2.081401 -0.3175,3.915842 -0.21169,4.092231 0.21169,0.3175 0.24696,6.87917 0.0706,10.124739 -0.0706,1.164162 -0.21167,4.586102 -0.3175,7.584702 -0.1411,2.99863 -0.3175,6.0325 -0.42333,6.7028 -0.10584,0.67026 -0.28224,4.33916 -0.38807,8.11387 -0.21167,6.63223 -0.2822,7.90223 -0.70554,15.16945 -0.10583,1.83444 -0.24696,4.93889 -0.3175,6.87916 -0.0706,1.94028 -0.24696,4.26862 -0.35279,5.22112 l -0.24694,1.65805 h -2.3636 c -1.27,0.0353 -8.29027,0 -15.5575,0 -15.839729,-0.0353 -13.86417,-0.0353 -16.404169,0.17639 -3.42193,0.3175 -22.0486,0.35278 -28.575,0.0706 -5.32693,-0.24695 -17.42723,-0.28223 -39.6875,-0.17639 -3.98639,0.0353 -10.97139,-0.0706 -15.52223,-0.21167 -6.9849996,-0.21167 -12.6999996,-0.3175 -29.31583,-0.52917 l -2.01083,-0.0353 -0.24694,-1.48167 c -0.3175,-1.86972 -0.28223,-23.60083 0.0353,-24.41223 0.10583,-0.3175 0.0706,-1.02304 -0.14111,-1.5522 -0.21166,-0.56447 -0.38806,-4.1275 -0.38806,-8.53724 0,-4.16276 -0.0353,-7.65526 -0.0705,-7.7611 0,-0.10583 0,-0.635 0.0353,-1.23473 0.1764,-2.6811 0.14107,-4.056931 -0.10583,-4.056931 -0.14113,0 -0.24697,-0.599739 -0.24697,-1.305301 0.0705,-3.351368 -0.56443,-13.299699 -0.9525,-14.9225 -0.1058,-0.493869 -0.17639,-1.058329 -0.14112,-1.305269 0.0706,-0.52917 -2.61054,-2.50473 -3.81,-2.82223 -0.49388,-0.10583 -1.62277,-0.81137 -2.46941,-1.5522 -0.91724,-0.8114 -2.04613,-1.4464 -2.82224,-1.55224 -0.70553,-0.1411 -1.69335,-0.4586 -2.25776,-0.74083 -0.8467,-0.4586 -2.68113,-0.52917 -13.40559,-0.3175 -15.875,0.3175 -29.17468,0.24694 -31.64415,-0.1764 -1.05835,-0.1411 -2.8575,-0.3175 -4.02166,-0.3175 -1.12887,-0.0353 -2.32834,-0.17637 -2.64584,-0.35277 -0.3175,-0.17639 -2.8575,-0.42333 -5.67973,-0.52916 -2.82223,-0.10584 -6.56166,-0.3175 -8.29027,-0.42334 -2.11666,-0.1411 -3.70416,-0.0706 -4.762501,0.24694 -1.05835,0.28223 -3.35139,0.38806 -7.05553,0.3175 -7.5142,-0.1411 -7.47893,-0.1411 -11.6417,0.10583 -2.04612,0.10584 -5.67973,0.3175 -8.11389,0.45863 -2.43414,0.1411 -8.21973,0.28221 -12.87638,0.3175 -9.45446,0.10584 -12.48835,0.35277 -13.08803,1.16417 -0.3175,0.4586 -1.34059,0.56443 -5.2917,0.635 -3.06916,0.0705 -5.08,-0.0706 -5.36223,-0.28223 -0.3175,-0.28223 -2.08139,-0.3175 -5.64443,-0.10584 -8.32557,0.42334 -13.26446,0.3175 -14.71084,-0.38806 -0.98777,-0.4586 -2.08139,-0.56444 -5.22112,-0.49387 -6.45584,0.17637 -6.77334,0.1411 -8.11388,-1.05833 -0.67027,-0.56447 -1.44639,-1.05834 -1.72862,-1.05834 -0.28218,0 -0.67027,-0.1764 -0.91718,-0.42333 -0.3175,-0.3175 -0.635,-0.3175 -1.30532,0 -0.52915,0.24693 -1.05834,0.35277 -1.19941,0.24693 -0.74086,-0.4586 -1.23474,2.29307 -1.65809,8.99584 -0.17638,3.386661 -0.42334,5.5739 -0.84665,7.9375 -0.17639,1.164161 -0.24696,2.8575 -0.14112,3.73943 0.10586,0.917231 0.0353,2.504731 -0.21164,3.527801 -0.77613,3.527769 -1.19947,8.92527 -1.19947,14.605 0,5.82083 0.38804,14.605 0.70554,16.72167 0.28223,1.76387 0.28223,6.91443 0,7.37304 -0.10581,0.21167 -0.0705,0.45861 0.14116,0.59972 0.21164,0.14111 0.3175,1.51695 0.28218,3.35139 l -0.10584,3.13972 -1.41107,-0.14111 c -5.99724,-0.635 -12.9117,-1.12889 -19.29697,-1.41111 -1.86973,-0.10583 -5.11527,-0.3175 -7.23191,-0.52917 -3.59836,-0.3175 -10.58333,-0.67027 -17.39201,-0.88194 -1.65801,-0.0353 -4.65661,-0.24694 -6.70272,-0.45861 -4.97419,-0.56445 -14.07588,-1.12889 -21.16669,-1.34056 -3.2103,-0.0706 -6.2089,-0.24694 -6.6675,-0.35277 -1.34059,-0.28223 -33.6903,-0.3175 -43.1447,-0.0353 l -8.3609,0.24694 -0.1763,-1.12889 c -0.1412,-1.02305 -0.071,-6.52639 0.1058,-6.985 0.035,-0.10584 0.071,-2.32834 0.035,-4.93887 0,-2.61057 0.1058,-5.53863 0.2822,-6.5264 0.1411,-0.9525 0.1764,-2.50473 0.071,-3.45723 -0.1058,-0.91721 -0.071,-1.79917 0.071,-1.94027 0.1411,-0.1411 0.1058,-1.1289 -0.071,-2.18723 -0.4233,-2.32834 -0.5644,-15.663344 -0.1763,-17.003874 0.1411,-0.56447 0.1411,-1.27 0,-1.5875 -0.3881,-0.9525 -0.4587,-5.573901 -0.1412,-8.748901 0.5645,-5.256398 0.3881,-7.161398 -0.7055,-8.784168 -0.5645,-0.8114 -1.7286,-2.57527 -2.6458,-3.9511 -1.4817,-2.29307 -1.7287,-2.54 -3.1045,-2.78696 -0.8467,-0.14111 -4.2333,-0.211671 -7.5142,-0.14111 -7.3025,0.14111 -6.2441,0.176399 -23.9888,-0.17639 -7.9728,-0.14111 -14.605,-0.38804 -14.7814,-0.564441 -0.1764,-0.176399 -0.635,-0.176399 -1.0584,0 -0.4233,0.141101 -4.4802,0.388071 -9.0311,0.564441 -9.4897,0.3175 -9.278,0.3175 -20.7786,0.0353 -4.9036,-0.105829 -8.9605,-0.0353 -9.4544,0.141101 -0.5645,0.21167 -2.9281,0.10584 -6.7381,-0.3175 -5.4328,-0.56443 -15.4164,-0.70556 -24.765,-0.38806 -4.5508,0.1764 -18.3444,-0.211671 -18.415,-0.4586 0,-0.1764 -0.035,-0.4939 -0.07,-0.70557 -0.035,-0.52916 -0.5292,-1.16416 -2.8928,-3.81 -1.0231,-1.12887 -1.9403,-2.5047 -2.0461,-3.06916 -0.1764,-0.77611 -0.5998,-1.19944 -1.5523,-1.5875 -1.5522,-0.67027 -7.2319,-1.12887 -8.1138,-0.67027 -0.3175,0.1764 -1.1995,0.4586 -1.9403,0.635 -1.3053,0.28223 -1.4111,0.38806 -2.787,3.6336 -0.7761,1.83446 -1.5522,3.4925 -1.7286,3.70417 -0.4233,0.42333 -0.4233,2.54 0.035,2.82223 0.1764,0.10583 0.2469,0.388059 0.1411,0.635 -0.071,0.24693 0.5292,1.023059 1.41111,1.7286 l 1.55219,1.3053 0.035,3.24553 c 0.035,1.79917 0.1411,3.38667 0.24701,3.56307 0.1058,0.1764 0.035,0.52916 -0.1764,0.7761 -0.28221,0.3175 -0.4586,3.81 -0.59971,10.30113 -0.071,5.432769 -0.24699,10.865541 -0.3175,12.135542 -0.071,1.27 -0.17639,5.85613 -0.17639,10.23056 -0.035,4.37444 -0.2117,11.18307 -0.42341,15.16944 -0.21159,3.98639 -0.3527,7.65528 -0.3527,8.18445 0.035,0.56444 -0.21169,1.02305 -0.56449,1.19944 -0.3175,0.14111 -5.29171,0.28222 -11.04191,0.28222 -10.7245,0.0353 -11.60639,0.14112 -11.60639,1.44639 0,0.28223 -0.1764,0.52917 -0.42341,0.59973 -0.24689,0.10583 -0.071,0.635 0.52921,1.51694 0.5292,0.77611 0.9525,1.62278 0.9525,1.86972 0,0.28222 0.42329,1.09361 0.9525,1.83445 l 0.9878,1.34055 3.175,0.21167 c 1.7286,0.14111 6.27939,0.28222 10.05419,0.3175 6.77331,0.0705 6.8791,0.0705 7.23191,0.88194 0.1764,0.42334 0.4586,0.77611 0.59969,0.77611 0.1411,0 0.98781,0.635 1.8697,1.41112 1.905,1.65805 2.9987,2.01083 4.37451,1.41111 1.65803,-0.67028 2.64583,-1.97555 2.57533,-3.35139 l -0.1059,-1.16416 2.0461,-0.28223 c 1.1289,-0.14111 5.2212,-0.24694 9.1017,-0.21166 3.8806,0 9.4192,0 12.3472,0 2.8928,-0.0353 6.8792,-0.0353 8.8195,-0.0353 1.9403,0 4.7978,0.0706 6.35,0.14112 1.5522,0.10583 3.2808,0.0353 3.8805,-0.10584 1.4464,-0.42333 16.8628,-0.35278 27.1639,0.10584 4.6567,0.21166 8.9606,0.38805 9.5956,0.35277 0.635,0 1.2347,0.14111 1.3405,0.3175 0.3528,0.56445 1.4464,0.42334 2.7164,-0.3175 1.3759,-0.81139 4.2686,-1.34055 9.4545,-1.72861 5.1152,-0.38805 37.1827,0.88195 41.275,1.62278 4.3391,0.81139 13.335,1.55222 18.0622,1.48167 2.7869,-0.0353 6.9497,-0.0706 9.278,-0.0706 2.5048,0 4.5156,-0.14111 4.9389,-0.38805 0.882,-0.49389 17.6742,-0.635 29.2806,-0.21167 4.445,0.17639 11.85331,0.35278 16.4042,0.45861 11.28882,0.24693 19.7908,0.77611 24.51801,1.5875 1.16419,0.21167 4.16279,0.45861 6.70279,0.56443 4.3392,0.17639 8.99584,0.49389 10.58334,0.74085 1.19943,0.17639 9.38387,0.84665 12.1708,0.98778 4.7978,0.21165 13.89947,0.84665 16.15724,1.12887 l 2.25776,0.24696 -0.21166,1.12889 c -0.56444,3.03389 1.27,6.38528 4.26863,7.76111 2.32833,1.05833 2.61053,1.05833 3.66887,0.21167 0.74083,-0.56445 0.8114,-1.02306 0.91723,-3.88056 0.0706,-1.76389 0.28223,-3.59833 0.4586,-4.09222 l 0.3175,-0.84667 5.92667,0.17639 c 3.24556,0.0706 8.14916,0.28221 10.86556,0.49389 2.7164,0.17639 12.31194,0.42332 21.34307,0.56443 9.0311,0.10585 18.2386,0.24696 20.4611,0.28224 2.2225,0.0705 9.2075,0.21165 15.52223,0.35276 6.3147,0.14111 13.75833,0.38807 16.58054,0.56446 2.82223,0.21165 6.773331,0.42333 8.819461,0.52915 2.0461,0.10585 4.79777,0.35278 6.1736,0.52918 1.34057,0.17639 7.86694,0.42332 14.4639,0.56445 15.62804,0.24694 18.0975,0.35276 23.98887,0.84666 2.7164,0.21167 6.985,0.45861 9.525,0.52917 2.50473,0.0353 9.27807,0.21167 14.99307,0.3175 13.1586,0.3175 40.92223,0.45861 40.92223,0.21167 0,-0.38806 11.78277,0.0353 14.00527,0.49388 2.39889,0.45862 3.21026,0.45862 15.27526,0.0353 3.88057,-0.14111 7.51417,-0.0705 8.9253,0.14111 1.62277,0.21167 4.1275,0.21167 7.5847,0 6.3853,-0.45861 12.27667,-0.42333 15.06363,0.0353 4.62137,0.77611 11.95917,1.05833 15.52221,0.59972 1.16416,-0.14111 2.75166,-0.35277 3.52779,-0.45861 2.2225,-0.28222 6.17361,-0.28222 8.290269,0 3.42194,0.42334 5.64444,0.52917 6.70277,0.21167 0.56446,-0.14111 1.09363,-0.21167 1.19946,-0.0706 0.21167,0.17639 2.64584,0.14111 9.03111,-0.17639 5.92666,-0.3175 13.86416,-0.3175 14.9225,0 0.98776,0.28223 0.98776,0.28223 0.70553,2.29306 -0.4586,3.21028 -0.17637,6.45583 0.59973,7.54944 0.38807,0.52917 0.70557,1.09362 0.70557,1.27 0,0.17639 0.38804,0.49389 0.88193,0.70556 0.4939,0.21167 0.88194,0.56444 0.88194,0.77611 0,0.45861 1.905,1.41111 2.78696,1.41111 2.25777,0 4.23334,-2.18722 3.03387,-3.38666 -0.5997,-0.59973 -0.52916,-3.28084 0.14113,-6.63223 0.3175,-1.51694 0.35277,-2.32833 0.0705,-2.92805 -0.21166,-0.45861 -0.38803,-0.88195 -0.38803,-0.9525 0,-0.0706 0.98776,-0.24695 2.1872,-0.38806 2.61056,-0.35278 6.77333,-0.35278 10.58333,-0.0353 1.6228,0.10584 2.75167,0.0706 2.75167,-0.10583 0,-0.21167 0.42333,-0.21167 0.9878,-0.0353 0.56443,0.14111 1.27,0.14111 1.5522,-0.0353 0.3175,-0.17639 1.05833,-0.14112 1.69333,0.0353 0.74084,0.21167 1.69334,0.21167 2.61057,0 0.8114,-0.17639 2.25777,-0.35277 3.24556,-0.35277 0.9525,0 1.94027,-0.17639 2.15194,-0.38806 0.4586,-0.45861 4.72723,-0.45861 6.985,-0.0353 0.7761,0.14111 2.29306,0.17639 3.38666,0.0353 1.05834,-0.10583 2.57527,-0.10583 3.3514,0.0353 1.05834,0.21166 0.81137,0.56444 -0.3175,0.38805 -0.14113,0 -0.24696,0.10584 -0.24696,0.28223 0,0.52916 3.95113,0.98777 6.5264,0.77611 2.32833,-0.17639 3.28083,-0.3175 3.6336,-0.52917 0.21167,-0.14111 1.65806,-0.38806 3.13973,-0.56444 2.50473,-0.28223 2.8575,-0.21167 3.9511,0.45861 0.74084,0.45861 2.01084,0.77611 3.3514,0.88194 1.94027,0.10583 2.0814,0.0706 1.62277,-0.45861 -0.35277,-0.42333 -0.9172,-0.56444 -2.15194,-0.45861 -0.91723,0.0353 -1.5875,-0.0353 -1.48166,-0.21167 0.10583,-0.17639 1.23473,-0.21166 2.54,-0.10583 1.27,0.14111 3.42193,0.3175 4.79777,0.42333 2.57529,0.24695 4.23333,0.70556 5.11529,1.44639 0.28221,0.24695 0.91721,0.42333 1.4111,0.42333 1.09361,-0.0353 11.1125,0.38806 13.93474,0.59973 2.96333,0.17639 19.22637,0.67027 22.225,0.635 1.34053,0 4.7625,0.14111 7.5847,0.3175 6.35,0.38805 23.3539,0.49389 27.94,0.14111 1.86973,-0.10584 4.09223,-0.0706 4.9389,0.10583 0.84666,0.17639 2.29306,0.21167 3.28083,0.0706 0.9525,-0.14111 2.3989,-0.10584 3.175,0.0353 0.7761,0.14112 3.24557,0.35278 5.46807,0.45862 2.2225,0.10583 5.25637,0.24694 6.70276,0.3175 1.4464,0.0705 3.0339,0.21166 3.52777,0.35277 0.4939,0.10584 3.56307,0.28223 6.87917,0.38806 3.28083,0.10583 7.51417,0.35278 9.34863,0.52917 2.43417,0.28222 3.59833,0.24694 4.30387,-0.0353 0.8114,-0.3175 1.16417,-0.28222 1.905,0.17639 0.9878,0.67027 1.1289,0.67027 14.07583,1.23472 4.65667,0.21167 10.68917,0.49389 13.40557,0.59972 2.7164,0.14111 8.5725,0.3175 13.05277,0.38806 19.61446,0.3175 22.01333,0.42333 24.16529,0.81139 1.27,0.24694 5.57387,0.49388 9.56027,0.52916 4.02167,0.0353 7.4436,0.17639 7.65527,0.3175 0.28223,0.14111 0.3528,1.34056 0.21167,3.4925 l -0.17637,3.24556 2.0461,2.01083 c 2.64583,2.57528 3.45723,2.78695 4.9036,1.27 z m -147.32,-19.12055 c 0,-0.0706 0.3175,-0.21167 0.70557,-0.3175 0.38806,-0.10584 0.635,-0.0353 0.49389,0.14111 -0.17639,0.3175 -1.19946,0.45861 -1.19946,0.17639 z m -40.56943,-0.35278 c 0,-0.10584 0.1411,-0.28222 0.35276,-0.38806 0.1764,-0.10583 0.3528,-0.0353 0.3528,0.14111 0,0.21167 -0.1764,0.38806 -0.3528,0.38806 -0.21166,0 -0.35276,-0.0706 -0.35276,-0.14111 z m -5.64444,-0.42334 c 0,-0.0705 0.38804,-0.14111 0.88194,-0.14111 0.49389,0 0.88193,0.14111 0.88193,0.3175 0,0.14111 -0.38804,0.21167 -0.88193,0.10584 -0.4939,-0.0706 -0.88194,-0.21167 -0.88194,-0.28223 z m -8.78417,0.0706 c 0.42334,-0.35278 2.08137,-0.52917 2.08137,-0.21167 0,0.17639 -0.49387,0.35278 -1.12887,0.35278 -0.59973,0 -1.02306,-0.0705 -0.9525,-0.14111 z m -6.94973,-0.17639 c 0.10584,-0.17639 0.59973,-0.28222 1.0936,-0.28222 0.4939,0 0.88197,0.10583 0.88197,0.28222 0,0.17639 -0.4939,0.3175 -1.09363,0.3175 -0.56444,0 -0.98777,-0.14111 -0.88194,-0.3175 z m -2.8575,0.10583 c 0.10584,-0.10583 0.42334,-0.14111 0.67027,-0.0353 0.28223,0.10583 0.1764,0.21166 -0.21167,0.21166 -0.38803,0.0353 -0.5997,-0.0705 -0.4586,-0.17639 z m -53.6575,-1.37583 c -0.10583,-0.10583 0.21167,-0.17639 0.74084,-0.17639 0.49389,0 1.02306,0.17639 1.12889,0.35278 0.24694,0.38806 -1.48166,0.21167 -1.86973,-0.17639 z m 2.9986,-0.0705 c 0.24697,-0.0706 0.74084,-0.0706 1.05834,0 0.35279,0.10583 0.14113,0.17638 -0.42334,0.17638 -0.5997,0 -0.84666,-0.0705 -0.635,-0.17638 z m -11.7122,-0.10584 c -0.52917,-0.24694 -0.3175,-0.3175 0.88194,-0.3175 1.16416,-0.0353 1.44639,0.0706 1.05833,0.3175 -0.635,0.42334 -0.98777,0.42334 -1.94027,0 z m -22.04863,-0.35278 c 0,-0.21166 1.02307,-0.35277 2.36363,-0.3175 1.5522,0.0353 2.08137,0.10584 1.51694,0.28223 -1.41111,0.38805 -3.88057,0.42333 -3.88057,0.0353 z m 11.39473,-0.21166 c 0.10584,-0.10584 0.42334,-0.14111 0.67027,-0.0353 0.28223,0.10583 0.1764,0.21167 -0.21167,0.21167 -0.38803,0.0353 -0.5997,-0.0706 -0.4586,-0.17639 z m -6.0325,-0.0353 c 0.35277,-0.0706 0.91723,-0.0706 1.23473,0 0.35277,0.10583 0.0705,0.17639 -0.59973,0.17639 -0.67027,0 -0.9525,-0.0706 -0.635,-0.17639 z M 107.34547,155.492 c -0.59973,-0.24695 -0.49389,-0.3175 0.45861,-0.3175 0.70556,-0.0353 1.0936,0.10583 0.9525,0.3175 -0.24694,0.42333 -0.45861,0.42333 -1.41111,0 z m -14.781389,-0.28223 c -0.0706,-0.14111 0.98777,-0.28222 2.3636,-0.3175 h 2.54 l -2.11667,0.24695 c -1.16416,0.10583 -2.2225,0.24694 -2.3636,0.28222 -0.1411,0.0353 -0.3175,-0.0705 -0.42333,-0.21167 z m -5.64444,-0.35277 c -0.0706,-0.14112 0.4586,-0.21167 1.23471,-0.14112 0.74083,0.0705 1.37583,0.21167 1.37583,0.28223 0,0.24694 -2.43417,0.14111 -2.61054,-0.14111 z m -2.8575,-0.0706 c -0.24696,-0.42334 0.7761,-0.42334 1.76387,0 0.59973,0.24694 0.52917,0.3175 -0.42333,0.3175 -0.59971,0.0353 -1.23471,-0.10584 -1.34054,-0.3175 z m -9.7014,-0.21167 c 0,-0.0705 0.59973,-0.14111 1.30527,-0.10583 1.02307,0 1.16417,0.0706 0.635,0.28222 -0.635,0.24694 -1.94027,0.14111 -1.94027,-0.17639 z m -5.715,-0.17639 c 0.52917,-0.21167 1.05834,-0.17639 1.41111,0.0353 0.45862,0.24696 0.28223,0.3175 -0.81138,0.3175 -1.23473,0 -1.30529,-0.0353 -0.59973,-0.35276 z m -4.83306,0.24695 c 0.28223,-0.28223 3.45723,-0.35278 3.70417,-0.10584 0.14112,0.14111 -0.67027,0.24695 -1.79917,0.24695 -1.12887,0 -1.97554,-0.0705 -1.905,-0.14111 z m -9.2075,-0.59973 c 0,-0.17639 0.24696,-0.3175 0.52917,-0.3175 0.52916,0 0.70556,0.42334 0.3175,0.81139 -0.28221,0.28222 -0.84667,-0.0353 -0.84667,-0.49389 z m 2.92806,0.17639 c 0.10584,-0.10583 0.42334,-0.14111 0.67027,-0.0353 0.28223,0.10583 0.1764,0.21167 -0.21166,0.21167 -0.38804,0.0353 -0.59971,-0.0706 -0.45861,-0.17639 z m -10.33639,-0.14111 c -0.28221,-0.17639 -0.38804,-0.35278 -0.17638,-0.35278 0.17638,0 0.59971,0.17639 0.88194,0.35278 0.28223,0.17639 0.35277,0.35278 0.1764,0.35278 -0.21167,0 -0.59973,-0.17639 -0.88196,-0.35278 z m -11.81804,-0.635 c 0.2822,-0.28222 0.88193,0.35278 0.67027,0.70556 -0.14111,0.21166 -0.3175,0.17639 -0.52917,-0.10584 -0.1411,-0.24694 -0.21167,-0.52916 -0.1411,-0.59972 z m -1.9403,0.0705 c 0,-0.0705 0.3175,-0.14111 0.70557,-0.14111 0.38806,0 0.70556,0.14111 0.70556,0.3175 0,0.17639 -0.3175,0.24695 -0.70556,0.14111 -0.38807,-0.10583 -0.70557,-0.24694 -0.70557,-0.3175 z M 4.9693514,153.16357 c 0.3175,-0.3175 0.98779,0.21166 0.74083,0.635 -0.1411,0.21166 -0.35277,0.21166 -0.59971,-0.0353 -0.21166,-0.21167 -0.28223,-0.45863 -0.14112,-0.59973 z m 9.0663896,0.35277 c 1.19944,-0.24694 3.88057,-0.3175 3.88057,-0.0705 0,0.17639 -0.9878,0.24695 -2.2225,0.24695 -1.19946,-0.0353 -1.9403,-0.10584 -1.65807,-0.17639 z m 252.059709,-2.01083 c -5.82084,-0.14111 -12.98221,-0.38805 -15.875,-0.56444 -2.92804,-0.17639 -6.10304,-0.3175 -7.05554,-0.3175 -2.78696,0.0353 -17.03917,-0.42334 -19.75556,-0.635 -2.64584,-0.17639 -4.3039,-0.3175 -7.9375,-0.67028 -2.15194,-0.17639 -6.73807,-0.35278 -19.40277,-0.70556 -5.32697,-0.14111 -14.9578,-0.21166 -34.39584,-0.21166 -5.25639,0 -11.71223,-0.0353 -14.39333,-0.0705 l -4.90363,-0.0706 -0.0353,-5.11529 c -0.0353,-5.99721 0.4233,-18.90888 0.70553,-19.93195 0.24697,-0.84666 0.38804,-7.19666 0.59973,-25.223598 0.0706,-7.267231 0.14113,-13.299731 0.1764,-13.370272 0.0353,-0.0706 0.24691,0.0705 0.52914,0.28221 0.28223,0.24696 0.70559,0.388062 0.98777,0.35279 0.24696,-0.0706 0.81143,0.0705 1.27,0.3175 0.91723,0.52917 5.57393,0.91721 9.94833,0.811372 1.6581,-0.0353 3.52783,0.105838 4.1981,0.3175 0.77607,0.211669 1.3758,0.211669 1.62276,0 0.24697,-0.176372 0.4939,-0.282202 0.59974,-0.176372 0.0706,0.105842 2.8575,0.176372 6.1383,0.176372 7.23196,0 8.67836,0 20.7786,0.1764 10.93613,0.176398 9.66613,0.1411 16.75699,0.811398 2.99861,0.282202 9.03111,0.56443 13.37027,0.635 7.40834,0.141102 7.90223,0.10583 8.74887,-0.56446 0.49387,-0.38804 1.19947,-0.70554 1.55223,-0.70554 0.91724,0 0.84667,0.9525 -0.10586,1.27 -1.97551,0.599702 1.0231,0.9525 9.9131,1.05833 5.15053,0.0705 10.5833,0.28221 12.02973,0.423342 1.44637,0.176368 4.5508,0.211658 6.87916,0.105828 2.32834,-0.105828 5.96194,-0.141129 8.11387,-0.141129 7.90224,0.105831 8.78414,0.0706 9.45447,-0.3175 0.49387,-0.246941 1.83443,-0.282199 4.09217,-0.0705 1.86976,0.1411 4.69199,0.28221 6.31476,0.3175 1.5875,0.0353 2.9986,0.176371 3.10444,0.28221 0.35279,0.3175 0.21166,8.92529 -0.1411,11.324159 -0.24697,1.69334 -0.24697,37.07696 0.0353,44.90863 0.0353,1.23472 -0.0705,2.2225 -0.21167,2.2225 -0.1411,0 -0.24693,0.21167 -0.21166,0.45861 0.1764,1.48167 -0.0705,2.68111 -0.635,2.78695 -0.88194,0.17639 -10.83027,0.0705 -22.86,-0.17639 z m -300.743039,-3.9511 c -7.23194,-0.38806 -12.5236,-0.42334 -13.1586,-0.10584 -0.38807,0.21167 -1.09363,0.17639 -1.7639,-0.0353 -0.67027,-0.21167 -6.45583,-0.45862 -14.00527,-0.52917 -7.09083,-0.10583 -13.68779,-0.35278 -14.64029,-0.52917 -0.98777,-0.17639 -5.18584,-0.42333 -9.34861,-0.56444 -4.16277,-0.10584 -10.54806,-0.42334 -14.181661,-0.67028 -3.63361,-0.24694 -9.2075,-0.52917 -12.34723,-0.56444 -8.53721,-0.17639 -11.53584,-0.28223 -21.62527,-0.67028 -12.59417,-0.49389 -25.1178,-0.81139 -31.22084,-0.77611 -12.98223,0.0706 -17.74473,0 -18.0975,-0.21167 -0.21166,-0.14111 -2.92806,-0.35278 -5.99723,-0.49389 -3.10443,-0.17639 -5.67973,-0.35278 -5.78554,-0.42333 -0.0706,-0.10584 -0.21169,-1.905 -0.3175,-3.98639 -0.0706,-2.11667 -0.3175,-5.18583 -0.49389,-6.84389 -0.52917,-4.33917 -0.52917,-25.57639 0,-25.57639 0.17639,0 0.35277,-5.820828 0.4586,-13.864156 0.10583,-5.64447 0.28223,-9.419172 0.4939,-9.630841 0.38806,-0.38806 4.0922,-0.42333 25.50583,-0.0706 17.4625,0.246929 42.58027,0.282229 65.96944,0.10583 18.838331,-0.1411 21.660561,-0.0353 28.222231,0.846671 5.08,0.705559 9.17223,1.0936 10.23056,0.9525 0.49387,-0.0706 4.2686,0.105828 8.43137,0.352769 6.77334,0.388059 7.83167,0.388059 10.30113,-0.14111 2.01083,-0.423331 3.03387,-0.4586 3.91583,-0.211659 0.635,0.176398 4.90361,0.423328 9.45444,0.529159 6.31473,0.105841 8.255,0.282239 8.14917,0.599739 -0.10584,0.24693 -0.14111,1.37583 -0.14111,2.54 0.0353,1.164161 0.14111,6.808602 0.28221,12.523598 0.10583,5.715 0.1764,10.58333 0.1764,10.75973 -0.21167,4.33918 -0.14111,14.92251 0.10583,15.24001 0.1764,0.24693 0.21167,1.12887 0.0706,1.94027 -0.28223,1.69333 -0.28223,18.90888 0,19.33222 0.24694,0.42333 -0.77613,0.59972 -2.82223,0.45861 -0.98777,-0.0353 -3.59833,-0.17639 -5.82083,-0.28222 z M -357.82728,136.40663 c -2.9987,-0.49389 -5.6445,-0.67028 -13.3703,-0.84667 -3.9864,-0.10583 -9.3839,-0.38805 -11.9945,-0.59972 -2.9633,-0.28222 -9.4544,-0.38806 -17.2861,-0.3175 -13.8289,0.14111 -59.5841,0.21167 -64.2055,0.10583 -1.0231,-0.0353 -18.8736,0.0353 -22.4014,0.0706 l -3.5278,0.0353 -0.1058,-1.19945 c -0.071,-0.67028 0.035,-1.86972 0.2822,-2.64583 0.2117,-0.81139 0.4586,-3.10443 0.5644,-5.15056 0.2117,-3.88054 0.2117,-4.23334 0.1411,-10.23054 -0.035,-3.24558 0.071,-7.62001 0.5645,-25.929177 0.071,-2.328331 0.2117,-5.32696 0.3175,-6.702791 0.1058,-1.340539 0.2117,-4.056939 0.2822,-5.997209 l 0.071,-3.52779 1.83441,-0.17637 c 2.0814,-0.21167 15.31059,0.49387 15.875,0.81137 0.21169,0.14113 6.06779,0.24696 13.01749,0.28223 6.985,0.0353 13.6878,0.21166 14.9578,0.35277 7.5142,1.02306 14.2875,1.19946 51.5055,1.55223 18.2739,0.1411 25.0473,0.3175 31.8559,0.70556 1.658,0.0705 2.6458,0 2.54,-0.21166 -0.1411,-0.1764 0.035,-0.3175 0.3175,-0.3175 0.3175,0 0.5644,0.17637 0.5644,0.35276 0,0.24694 1.7992,0.28224 5.2564,0.14111 3.9864,-0.17637 5.2917,-0.10584 5.5033,0.21166 0.3528,0.56447 0.4587,3.95113 0.1412,4.40973 -0.4234,0.670271 -0.7762,2.822241 -0.8467,5.714999 -0.071,1.5875 -0.2117,3.033901 -0.2822,3.210272 -0.3528,0.529169 -0.247,8.50197 0.1058,8.713629 0.1764,0.105841 0.2469,0.952497 0.1411,1.904997 -0.2822,2.50471 -0.4939,9.24277 -0.4586,13.44085 0.035,2.0461 0.035,4.2686 0,4.93887 -0.035,0.67029 -0.1058,3.63363 -0.1411,6.52639 -0.071,3.06917 -0.2822,5.60917 -0.4939,6.0325 -0.2469,0.38806 -0.3175,1.37584 -0.2117,2.18722 0.3528,2.54 0.3175,2.54 -4.445,2.50473 -2.293,-0.0353 -5.0447,-0.21167 -6.0677,-0.35278 z M 156.73435,82.114122 c -0.10584,-0.1764 -0.0706,-0.35277 0.1411,-0.35277 0.1764,0 0.45863,0.17637 0.56446,0.35277 0.10583,0.21167 0.0705,0.352769 -0.14113,0.352769 -0.17637,0 -0.4586,-0.141099 -0.56443,-0.352769 z m -326.49584,-2.15193 c 0,-0.1764 0.24696,-0.3175 0.52917,-0.3175 0.52917,0 0.70556,0.42333 0.3175,0.81137 -0.28221,0.28223 -0.84667,-0.0353 -0.84667,-0.49387 z"
           inkscape:connector-curvature="0"
           style="stroke-width:0.03527778" />
        <path
           id="path9372"
           d="m -454.98228,109.77191 c 2.9633,-0.67027 4.5508,-1.37583 4.2333,-1.905 -0.1058,-0.17637 -0.035,-0.38804 0.1764,-0.52917 1.1641,-0.70553 -0.7056,-3.56303 -2.9281,-4.37443 -0.5644,-0.21167 -2.3636,-0.38807 -4.0216,-0.38807 -3.7042,0 -4.4098,0.42334 -3.9864,2.29307 0.1411,0.67027 0.1764,1.23473 0.035,1.23473 -0.1058,0 -0.035,0.1411 0.1764,0.2822 0.2117,0.14113 0.7409,0.88197 1.1642,1.65807 0.4233,0.8114 1.0583,1.48166 1.3758,1.51693 0.3175,0.0353 1.1642,0.14113 1.8345,0.21167 0.6703,0.0706 1.5522,0.0706 1.9403,0 z"
           inkscape:connector-curvature="0"
           style="stroke-width:0.03527778;fill:#ff6600" />
        <path
           id="path9380"
           d="m 207.00518,158.31415 c 0,-0.17639 -0.24694,-0.35278 -0.52917,-0.35278 -0.28223,0 -0.52916,0.17639 -0.52916,0.35278 0,0.21167 0.24693,0.35278 0.52916,0.35278 0.28223,0 0.52917,-0.14111 0.52917,-0.35278 z"
           inkscape:connector-curvature="0"
           style="stroke-width:0.03527778" />
        <path
           id="path9382"
           d="m -535.87428,153.76332 c 1.6933,-0.38806 4.7978,-5.25639 4.5508,-7.16139 -0.035,-0.3175 0.2823,-1.27 0.7056,-2.11667 1.0936,-2.08139 1.0936,-2.18722 -0.071,-3.4925 -0.8466,-0.9525 -1.1288,-1.05833 -1.9755,-0.84668 -0.5292,0.14112 -1.6933,0.24696 -2.54,0.24696 -1.1642,-0.0353 -1.6933,0.14111 -2.1872,0.74083 -0.5998,0.74083 -0.635,0.74083 -0.4586,0.0706 0.2469,-1.05834 -1.1289,-3.91584 -2.2931,-4.72723 -0.5644,-0.42333 -1.5875,-0.74083 -2.2578,-0.74083 -1.1994,0 -1.1994,0 -1.658,-2.18722 -0.247,-1.30528 -0.7409,-2.57528 -1.1642,-3.03389 -1.1289,-1.19944 -4.4097,-2.99861 -5.4681,-2.96334 -0.5291,0 -1.1641,-0.17637 -1.4111,-0.35277 -0.2469,-0.21167 -1.1289,-0.28223 -2.1166,-0.1411 -0.9173,0.1411 -1.9756,0.2822 -2.3636,0.3175 -1.0937,0.1411 -2.3637,0.635 -3.3514,1.30527 -0.4939,0.3175 -1.5875,1.05833 -2.4342,1.62277 -0.8467,0.52917 -1.6228,1.23473 -1.7286,1.55223 -0.1058,0.28222 -0.635,1.16416 -1.1289,1.94026 -0.9525,1.4464 -1.7639,4.33918 -1.7639,6.27946 0,2.36361 1.6933,6.10304 3.422,7.69054 2.0813,1.94029 5.0094,3.24557 7.373,3.3514 1.2347,0.0706 2.3283,-0.0353 2.4342,-0.21166 0.1058,-0.17639 0.4233,-0.24695 0.7055,-0.10584 0.2823,0.10584 0.5292,0 0.5292,-0.17639 0,-0.21166 0.2822,-0.45861 0.5997,-0.56444 1.1289,-0.35278 4.2686,-3.52778 5.08,-5.11528 0.6703,-1.34055 0.8467,-1.44639 1.0584,-0.88194 0.1411,0.35276 0.2822,1.05833 0.2822,1.55222 0.07,1.44639 1.5875,4.30389 3.2103,5.96194 2.2225,2.2225 3.8452,2.78695 6.4205,2.18723 z m -22.1897,-11.21835 c -0.1058,-0.70554 0.2469,-1.97554 0.9525,-3.4925 1.4817,-3.3161 1.8697,-3.66889 3.9511,-3.66889 0.9172,0 1.6933,0.14112 1.6933,0.28224 0,1.34055 -1.4111,3.88055 -3.2455,5.89138 -2.3284,2.54 -3.175,2.78695 -3.3514,0.98777 z"
           inkscape:connector-curvature="0"
           style="stroke-width:0.03527778" />
        <path
           id="path9384"
           d="m 402.37351,148.93026 c -0.10583,-0.52918 -0.67027,-0.74083 -0.59973,-0.24694 0,0.14111 -0.2822,0.35276 -0.635,0.49388 -0.49387,0.21167 -0.42333,0.28223 0.3528,0.28223 0.74083,0.0353 0.98777,-0.10585 0.88193,-0.52917 z"
           inkscape:connector-curvature="0"
           style="stroke-width:0.03527778" />
        <path
           id="path9386"
           d="m 564.89822,148.5422 c 1.905,-0.42333 5.1506,-1.55223 7.0556,-2.36362 2.0108,-0.91721 5.8561,-3.56304 6.1383,-4.26861 0.071,-0.17639 0.7761,-1.05832 1.5875,-1.94027 2.1519,-2.36362 3.2103,-4.33916 3.9864,-7.33777 0.9878,-3.95111 1.27,-5.57388 1.3405,-8.18446 0.071,-2.99859 -0.1763,-3.52775 -2.9633,-6.45582 -2.0461,-2.15193 -4.7978,-3.56307 -8.7489,-4.51557 -1.7286,-0.38804 -3.6336,-0.9525 -4.2686,-1.23471 -1.8344,-0.77613 -4.2333,-0.635 -5.5386,0.35277 -0.5997,0.45861 -1.6581,1.09361 -2.3636,1.37583 -1.5875,0.67028 -5.8914,3.4925 -6.9145,4.55085 -1.8344,1.86972 -2.8222,3.24556 -4.1275,5.82083 -1.5522,3.10443 -1.9402,4.97417 -2.0108,9.27805 -0.071,3.175 0.9172,8.11388 1.5875,8.11388 0.2117,0 0.2822,0.10585 0.1764,0.21168 -0.2117,0.17639 2.5753,3.175 4.1628,4.48028 1.4111,1.19943 5.4328,2.36361 7.9022,2.32833 1.27,-0.0353 2.6106,-0.10583 2.9986,-0.21167 z m -7.7611,-8.11388 c -0.5644,-1.51695 -0.5997,-4.90362 -0.035,-6.45585 0.3175,-0.88193 0.5644,-1.94027 0.5644,-2.36361 0,-0.4586 0.1764,-0.81139 0.3881,-0.81139 0.1764,0 0.2822,-0.14111 0.1411,-0.35277 -0.3528,-0.59973 2.0108,-4.37445 3.8453,-6.10305 2.5047,-2.36361 5.1152,-3.63361 8.1844,-3.95111 4.8683,-0.45862 6.7733,0.77611 6.3147,4.05693 -0.1411,0.98778 -0.4233,1.86975 -0.6702,1.97558 -0.2117,0.0705 -0.4234,0.52917 -0.4234,1.02303 -0.1411,1.97557 -3.9864,7.05557 -7.373,9.63085 -2.9281,2.25777 -4.7273,3.13972 -7.2673,3.56304 -2.8927,0.45861 -3.3866,0.45861 -3.6688,-0.21165 z"
           inkscape:connector-curvature="0"
           style="stroke-width:0.03527778" />
        <path
           id="path9388"
           d="m 529.44402,148.04832 c 2.4695,-0.28224 3.6337,-0.81139 5.8209,-2.64585 1.4816,-1.27 1.905,-1.86971 2.6105,-4.02165 1.0231,-2.99862 1.1289,-4.65667 0.2823,-5.57389 -0.3175,-0.35278 -0.5998,-0.91723 -0.5998,-1.19946 0,-0.3175 -1.023,-1.55221 -2.2225,-2.78693 -2.3283,-2.36361 -4.0216,-3.13972 -7.9375,-3.70416 -1.5875,-0.21166 -2.1872,-0.88196 -1.5169,-1.69333 0.2117,-0.24697 0.2822,-0.56447 0.1764,-0.6703 -0.1411,-0.1411 0.071,-0.67028 0.4233,-1.19943 0.3881,-0.52917 0.6703,-1.23474 0.6703,-1.51694 0,-0.59973 3.3867,-1.83446 8.4667,-3.10446 1.7286,-0.4586 3.6336,-0.9525 4.2333,-1.12888 0.5644,-0.17639 1.7639,-0.42332 2.6458,-0.56446 1.6581,-0.2822 3.5278,-1.72861 3.5278,-2.78693 0,-0.635 -2.0108,-2.54 -3.6689,-3.42194 -1.4111,-0.77613 -4.6919,-0.8114 -8.8547,-0.0706 -2.0814,0.35277 -4.3039,0.4939 -6.4558,0.38807 -3.4573,-0.1764 -5.0095,0 -5.0095,0.49388 0,0.21166 -0.6703,1.48166 -1.4464,2.89279 -0.8114,1.4111 -2.0108,3.45721 -2.6458,4.5861 -0.635,1.09361 -1.0583,2.01084 -0.9525,2.01084 0.1058,0 -0.1411,0.28223 -0.4939,0.635 -0.8114,0.70556 -1.5875,3.81 -1.27,5.04473 0.5997,2.32832 3.9864,5.50332 6.8792,6.34999 0.635,0.17639 2.4694,0.35278 4.0922,0.35278 3.0692,0 3.6336,0.28222 3.0692,1.65805 -0.1764,0.3175 -0.3175,0.81139 -0.3881,1.05833 -0.4586,2.32834 -6.4911,5.25639 -8.0786,3.95112 -0.2822,-0.24695 -0.5292,-0.3175 -0.5292,-0.21167 0,0.14111 -0.2469,0 -0.5644,-0.28222 -0.2822,-0.3175 -0.7761,-0.56445 -1.0584,-0.56445 -0.2822,0 -1.0936,-0.52916 -1.7991,-1.19944 -2.3284,-2.04611 -4.692,-2.11667 -4.692,-0.10584 0.035,1.02306 1.3406,3.06917 1.9756,3.06917 0.3528,0 1.1642,1.09361 1.5875,2.08139 0.1764,0.45861 0.4233,0.74083 0.5292,0.635 0.1058,-0.0706 1.0583,0.35278 2.1519,1.02306 1.0936,0.635 2.54,1.34055 3.2456,1.55222 0.7055,0.24694 1.5169,0.49389 1.7991,0.635 0.7056,0.28222 3.6336,0.28222 5.9972,0.0353 z"
           inkscape:connector-curvature="0"
           style="stroke-width:0.03527778" />
        <path
           id="path9390"
           d="m 629.28022,144.80276 c 1.0583,-0.45861 1.9755,-1.02306 2.0461,-1.30529 0.035,-0.28221 0.7055,-0.88193 1.4816,-1.34054 0.7761,-0.42335 1.4111,-1.02306 1.4111,-1.30528 0,-0.28222 0.1412,-0.52918 0.3528,-0.52918 0.4586,0 1.5875,-2.32832 1.8697,-3.77471 0.3175,-1.5875 -1.1288,-5.85611 -2.2577,-6.73806 -0.4586,-0.38805 -1.3759,-0.95248 -2.0109,-1.26998 -0.8466,-0.45864 -1.1289,-0.77614 -0.9525,-1.23475 0.1411,-0.49389 -0.035,-0.70555 -0.7055,-0.88192 -0.4939,-0.14113 -1.0936,-0.59973 -1.27,-1.05833 -0.3175,-0.635 -0.7761,-0.88197 -1.9756,-1.05834 -3.1044,-0.42334 -6.2441,-0.24696 -7.5141,0.42334 -1.5875,0.81136 -4.9389,4.02166 -4.9389,4.72721 0,0.3175 -0.2117,1.09361 -0.4939,1.72861 -0.3881,0.91722 -0.4234,1.65804 -0.1411,3.13972 0.4939,2.75167 1.0583,3.91582 3.175,6.49111 1.5169,1.86971 2.3283,2.50471 4.3039,3.42195 3.1397,1.44638 5.08,1.5875 7.62,0.56444 z m -6.1737,-7.97279 c -0.3527,-1.12889 0.4234,-2.36361 2.152,-3.52777 1.6228,-1.12888 1.658,-1.12888 2.293,-0.42334 0.3881,0.38807 0.6703,0.91722 0.6703,1.16418 -0.035,0.84666 -1.2347,2.01083 -2.8222,2.71639 -1.9756,0.88194 -2.0108,0.88194 -2.2931,0.0705 z"
           inkscape:connector-curvature="0"
           style="stroke-width:0.03527778" />
        <path
           id="path9392"
           d="m 603.20992,141.66304 c 1.023,-1.62278 2.3989,-3.42196 2.9986,-4.05696 0.635,-0.635 1.2347,-1.44638 1.3758,-1.86971 0.1059,-0.38805 0.4234,-0.70555 0.6703,-0.70555 0.4586,0 2.1519,-2.08139 1.8697,-2.32835 -0.071,-0.0705 0.7761,-1.12889 1.905,-2.36361 1.1289,-1.19944 2.0814,-2.29304 2.0814,-2.43414 0,-0.14114 1.4464,-1.72864 3.2103,-3.5278 5.1153,-5.18584 5.8208,-5.9972 6.8086,-7.72584 0.4939,-0.88193 1.6228,-2.29304 2.5047,-3.10443 0.882,-0.81141 1.5875,-1.62278 1.5875,-1.83444 0,-0.1764 -0.4586,-0.3175 -1.023,-0.3175 -0.7761,0 -1.1995,-0.28224 -1.7286,-1.19947 -0.3881,-0.67027 -1.3759,-1.65803 -2.152,-2.15193 -1.1642,-0.8114 -1.658,-0.91723 -2.8222,-0.70557 -1.1642,0.1764 -1.7639,0.635 -3.3514,2.46947 -1.0936,1.2347 -1.9756,2.32833 -1.9756,2.46943 0,0.4586 -6.8791,7.86694 -7.3377,7.90224 -0.4939,0.0353 -0.5645,-0.52916 -0.1059,-0.81141 0.3175,-0.21165 0.8114,-2.92805 0.8114,-4.62139 0,-3.52777 -2.0814,-6.45584 -5.8561,-8.11387 -1.905,-0.84667 -2.2578,-0.88197 -4.445,-0.56447 -1.6228,0.21167 -3.3867,0.8114 -5.468,1.83447 -2.7164,1.34053 -3.175,1.7286 -4.0923,3.3161 -0.7761,1.27 -0.9877,2.04611 -0.8466,2.82223 0.1058,0.59971 0.2469,1.51693 0.3527,2.08138 0.1764,1.09362 1.0584,2.29305 4.1628,5.64446 1.905,2.11666 2.1167,2.2225 4.4097,2.68109 2.787,0.49391 4.4098,0.17641 7.3731,-1.48165 2.0814,-1.16417 2.7517,-1.0936 1.6228,0.1764 -0.3881,0.42332 -1.4111,1.79916 -2.2225,3.06916 -0.8467,1.27 -2.0814,2.96334 -2.787,3.73944 -0.7055,0.81138 -1.6227,2.01083 -2.0814,2.64583 -0.4233,0.67028 -1.5875,2.29305 -2.54,3.59832 -0.9877,1.30529 -1.7638,2.57529 -1.7638,2.75168 0,0.91722 1.905,3.45722 3.3513,4.48028 2.6106,1.83444 3.2809,1.62277 5.5034,-1.76389 z m -5.6797,-25.78807 c 0,-0.70555 0.7761,-1.30525 1.658,-1.30525 0.5997,0 0.7408,0.1411 0.5645,0.635 -0.1412,0.3175 -0.3881,0.70553 -0.5998,0.84666 -0.635,0.42334 -1.6227,0.3175 -1.6227,-0.17641 z"
           inkscape:connector-curvature="0"
           style="stroke-width:0.03527778" />
        <g
           id="g14641">
          <path
             style="stroke-width:0.03527778;fill:#ff6600"
             inkscape:connector-curvature="0"
             d="m -44.066759,116.93332 c 0.67027,-0.1764 1.72861,-0.8114 2.36361,-1.48167 1.02306,-1.05833 1.09362,-1.30527 0.88196,-2.64584 -0.14113,-0.88194 -0.4939,-1.55223 -0.8114,-1.65807 -0.35277,-0.10583 -1.0936,-0.56443 -1.65806,-0.98777 -1.30527,-0.98776 -3.38667,-1.5875 -5.32694,-1.5875 -1.23473,0 -1.51694,0.14111 -1.69333,0.8114 -0.4939,1.86971 -0.21167,3.81001 0.84666,5.67971 1.02307,1.79917 1.16417,1.905 2.61057,2.04614 0.88193,0.0353 2.11666,-0.0353 2.78693,-0.1764 z"
             id="path9354" />
          <path
             style="stroke-width:0.03527778;fill:#ff6600"
             inkscape:connector-curvature="0"
             d="m -66.926759,115.98082 c 0.56444,-0.1411 2.0814,-0.28224 3.3514,-0.3175 2.15194,-0.0353 4.97417,-0.74085 5.8561,-1.48167 1.1289,-0.9525 -1.19943,-4.33918 -3.66889,-5.36224 -0.74084,-0.2822 -1.94027,-0.7761 -2.75167,-1.12887 -0.9525,-0.38807 -2.57527,-0.59973 -4.86833,-0.635 -3.03388,-0.0706 -3.4925,0 -3.95111,0.5997 -1.0936,1.51697 -0.10583,6.17364 1.65807,7.69058 1.16416,1.02306 2.25777,1.16415 4.37443,0.635 z"
             id="path9356" />
          <path
             style="stroke-width:0.03527778;fill:#ff6600"
             inkscape:connector-curvature="0"
             d="m -135.93009,115.45165 c 2.0814,-0.38807 2.82223,-0.70557 3.70417,-1.55223 1.05833,-1.05834 1.05833,-1.05834 0.4586,-2.29305 -1.0936,-2.36363 -5.60917,-3.81 -11.99444,-3.88056 -3.35139,-0.0353 -3.9511,0.4586 -3.56306,2.78693 0.42333,2.71641 1.37583,3.8453 4.02167,4.86834 1.86973,0.70557 3.73946,0.70557 7.37306,0.0706 z"
             id="path9358" />
          <path
             style="stroke-width:0.03527778;fill:#ff6600"
             inkscape:connector-curvature="0"
             d="m -112.25869,114.25222 c 2.8222,-0.45864 4.445,-1.05834 5.2211,-1.90501 0.67027,-0.70557 0.70556,-0.9525 0.35277,-1.905 -0.4586,-1.23474 -3.56304,-3.31613 -5.15054,-3.4925 -0.52917,-0.0706 -1.97556,-0.24697 -3.24556,-0.42334 -2.64584,-0.38806 -6.6675,-0.14113 -7.33777,0.38804 -0.56446,0.45863 -0.42334,3.91583 0.21166,5.08 0.81138,1.48167 2.68111,2.29306 5.64444,2.39891 1.48167,0.0706 3.42194,0 4.3039,-0.1411 z"
             id="path9360" />
          <path
             style="stroke-width:0.03527778;fill:#ff6600"
             inkscape:connector-curvature="0"
             d="m -86.082589,113.86415 c 3.3161,-0.1764 4.37444,-0.74083 4.33917,-2.22251 -0.0706,-1.1289 -0.38807,-1.55223 -1.86973,-2.50473 -0.74084,-0.4586 -1.65804,-1.12887 -2.08138,-1.51694 -1.19946,-1.05833 -8.29029,-1.4111 -11.07723,-0.59973 l -1.97556,0.59973 0.28223,1.51694 c 0.38806,2.04613 1.16417,3.45723 2.32833,4.30391 1.05834,0.74083 3.24557,0.84665 10.05417,0.42333 z"
             id="path9362" />
          <path
             style="stroke-width:0.03527778;fill:#ff6600"
             inkscape:connector-curvature="0"
             d="m -160.23649,113.54665 c 3.38667,-0.28223 5.04473,-1.30528 4.7625,-2.85751 -0.1411,-0.84667 -1.7286,-2.96333 -2.0461,-2.75167 -0.0353,0.0353 -1.65806,-0.49389 -3.59833,-1.23473 -2.82223,-1.02303 -3.95111,-1.27 -5.60917,-1.19943 -1.5875,0.0706 -2.11667,0.24693 -2.43417,0.7761 -0.9525,1.72863 -0.35277,3.77473 1.7639,6.0325 1.48164,1.58751 2.01083,1.65806 7.16137,1.23474 z"
             id="path9364" />
          <path
             style="stroke-width:0.03527778;fill:#ff6600"
             inkscape:connector-curvature="0"
             d="m -185.63649,113.15858 c 4.97417,-0.635 6.42057,-1.37584 6.27946,-3.24554 -0.10583,-1.3053 -1.86973,-2.92807 -3.73946,-3.42196 -1.905,-0.52917 -9.9836,-1.19944 -10.33637,-0.84667 -0.45863,0.4939 -0.4939,2.82223 0,3.42196 0.24694,0.3175 0.35277,0.56444 0.24694,0.56444 -0.3175,0 0.38806,0.88193 2.01083,2.54 1.44637,1.44641 1.69333,1.48166 5.5386,0.98777 z"
             id="path9366" />
          <path
             style="stroke-width:0.03527778;fill:#ff6600"
             inkscape:connector-curvature="0"
             d="m -478.44208,111.07721 c 1.6228,-0.3175 1.9756,-0.56447 2.5753,-1.7639 0.8467,-1.7286 0.2117,-3.81 -1.2347,-4.05694 -0.2822,-0.0353 -0.9525,-0.3175 -1.4464,-0.67029 -0.4939,-0.3175 -1.3406,-0.56444 -1.905,-0.52917 -0.5292,0 -2.0461,-0.10583 -3.3161,-0.24694 -3.1045,-0.35276 -3.9511,0.0706 -3.6336,1.79917 0.388,2.0461 2.4694,5.2211 3.5983,5.46807 1.27,0.3175 3.81,0.2822 5.3622,0 z"
             id="path9368" />
          <path
             style="stroke-width:0.03527778;fill:#ff6600"
             inkscape:connector-curvature="0"
             d="m -358.32118,109.41914 c 2.8927,-0.59973 5.08,-1.7639 5.3269,-2.78693 0.3881,-1.48167 0,-2.04613 -2.293,-3.28084 -2.1873,-1.16416 -3.7395,-1.48166 -7.5495,-1.55223 -0.5292,-0.0353 -0.9525,-0.1411 -0.9525,-0.3175 0,-0.4586 -0.9878,-0.1411 -1.7639,0.56444 -1.4464,1.30529 -0.6703,5.25639 1.4111,7.02029 1.27,1.02304 2.3989,1.0936 5.8209,0.35277 z"
             id="path9370" />
          <path
             style="stroke-width:0.03527778;fill:#ff6600"
             inkscape:connector-curvature="0"
             d="m -378.71178,107.97274 c 3.3867,-0.67027 4.9742,-1.62277 5.2564,-3.10443 0.2822,-1.51694 -0.2469,-2.2225 -2.6458,-3.56307 -1.4464,-0.81137 -1.8345,-0.88193 -3.7395,-0.635 -1.1641,0.14113 -2.7516,0.28223 -3.5278,0.28223 -1.8697,0.0353 -2.293,0.38807 -2.293,1.83444 0,1.27 0.8467,3.31613 1.3758,3.31613 0.1764,0 0.3881,0.2822 0.4586,0.635 0.1059,0.35277 0.8114,0.88193 1.5523,1.16417 1.1641,0.4586 1.6933,0.4586 3.563,0.0705 z"
             id="path9374" />
          <path
             style="stroke-width:0.03527778;fill:#ff6600"
             inkscape:connector-curvature="0"
             d="m -425.52538,108.21971 c 2.3989,-0.42334 3.3867,-0.91724 4.1981,-2.0814 0.7055,-0.98777 0.7408,-1.19944 0.3175,-2.3636 -0.5292,-1.51697 -0.6703,-1.6228 -3.1045,-2.50474 -1.7992,-0.67026 -3.4925,-0.7761 -7.62,-0.52916 -1.0583,0.0706 -1.0583,0.10583 -1.0583,1.94027 0.071,3.21029 2.4341,5.99723 5.0094,5.85613 0.3528,-0.0353 1.3759,-0.1764 2.2578,-0.3175 z"
             id="path9376" />
          <path
             style="stroke-width:0.03527778;fill:#ff6600"
             inkscape:connector-curvature="0"
             d="m -396.31538,106.56164 c 1.3053,-0.24693 2.5047,-1.7286 2.4342,-2.92806 -0.035,-0.56444 -0.1764,-1.05834 -0.3175,-1.05834 -0.1411,0 -0.3175,-0.3175 -0.4586,-0.70553 -0.1059,-0.38807 -1.0584,-1.05834 -2.1873,-1.5875 -1.5875,-0.705569 -2.5047,-0.881967 -4.8683,-0.881967 -3.2808,0 -3.5983,0.176398 -3.6336,2.293067 -0.071,1.7286 0.9172,3.45723 2.4694,4.40973 1.1289,0.67027 4.2334,0.88193 6.5617,0.4586 z"
             id="path9378" />
          <g
             style="fill:#ff6600"
             id="g14601">
            <path
               id="path9342"
               d="m 275.19711,122.78942 c 0.10584,-0.0705 1.02307,-0.21167 2.04613,-0.2822 2.68111,-0.1764 4.83304,-0.84668 5.89137,-1.79918 0.4939,-0.45862 1.02307,-0.84666 1.16417,-0.84666 0.1764,0 0.3175,-0.59973 0.3175,-1.34056 0,-1.27 -0.10583,-1.4464 -2.3636,-2.8575 -2.32833,-1.48167 -2.3989,-1.51694 -5.60917,-1.51694 -2.01083,0 -3.56306,0.14109 -4.19806,0.45859 -0.88194,0.45861 -1.02304,0.70557 -1.0936,2.43418 -0.0706,1.5875 0.0706,2.11667 0.7761,3.06917 0.45863,0.59972 0.84666,1.27 0.84666,1.48165 0,0.38807 1.97557,1.48168 2.2225,1.19945 z"
               inkscape:connector-curvature="0"
               style="stroke-width:0.03527778;fill:#ff6600" />
            <path
               id="path9344"
               d="m 253.39545,120.53165 c 0.56446,-0.1764 2.61056,-0.28223 4.51556,-0.21168 1.905,0.0706 3.52777,0 3.6336,-0.14109 0.0706,-0.14113 0.45863,-0.17641 0.88197,-0.0706 0.38803,0.10582 1.19943,-0.0706 1.83443,-0.42335 0.91723,-0.49389 1.1289,-0.81139 1.0936,-1.7286 -0.0353,-0.88196 -0.42333,-1.48165 -1.76387,-2.75165 -2.61056,-2.39891 -4.05696,-2.99864 -8.255,-3.35141 -1.05833,-0.0706 -2.18723,-0.24694 -2.46946,-0.35277 -0.2822,-0.10583 -1.5522,-0.1764 -2.8222,-0.14113 -1.905,0.0706 -2.50473,0.24696 -3.5278,1.05833 -1.27,0.9878 -1.7286,2.36363 -1.19943,3.49251 0.1411,0.35279 0.28223,0.70557 0.3175,0.88197 0.0706,0.1411 0.1411,0.35275 0.17639,0.52915 0.0353,0.1411 0.0705,0.38804 0.0353,0.52917 -0.10583,0.67028 0.8114,1.69333 2.0814,2.3636 1.48166,0.74083 3.66887,0.88194 5.46803,0.3175 z"
               inkscape:connector-curvature="0"
               style="stroke-width:0.03527778;fill:#ff6600" />
            <path
               id="path9346"
               d="m 202.84241,120.00247 c 0.1411,-0.10582 0.98777,-0.24693 1.94027,-0.3175 0.91723,-0.0706 2.0814,-0.21165 2.57527,-0.28222 0.4939,-0.0705 1.86973,-0.24693 3.06916,-0.42333 2.78697,-0.3175 3.9864,-1.16417 3.9864,-2.8222 0,-1.4464 -0.3175,-2.36364 -0.74083,-2.0814 -0.1764,0.10583 -0.67027,-0.1764 -1.1289,-0.635 -1.16417,-1.16418 -5.5386,-2.96335 -6.0325,-2.50474 -0.0705,0.10583 -0.38804,0.0353 -0.635,-0.10584 -0.24693,-0.17637 -2.0461,-0.24693 -3.98637,-0.21166 -3.175,0.0353 -3.59833,0.14113 -4.1628,0.84666 -0.67026,0.8114 -0.67026,2.43418 -0.0705,5.04473 0.35277,1.34057 1.76387,2.89278 2.96334,3.175 0.49387,0.10585 1.16416,0.28225 1.48166,0.38807 0.28221,0.0705 0.635,0.0353 0.74084,-0.0706 z"
               inkscape:connector-curvature="0"
               style="stroke-width:0.03527778;fill:#ff6600" />
            <path
               id="path9348"
               d="m 233.28711,119.47332 c 3.9864,-0.35278 4.55084,-0.4586 5.96197,-1.34057 1.69333,-1.05833 1.37583,-2.3636 -1.05834,-4.445 -1.94029,-1.65804 -2.82223,-1.97554 -7.3025,-2.54001 -0.91723,-0.10583 -1.76389,-0.35277 -1.86973,-0.49387 -0.3175,-0.52916 -2.7164,-0.35279 -3.9864,0.3175 -1.12887,0.56444 -1.2347,0.74084 -1.2347,2.18721 0,4.1275 0.0705,4.33917 1.65804,5.50334 1.65806,1.23473 2.29306,1.3053 7.83166,0.8114 z"
               inkscape:connector-curvature="0"
               style="stroke-width:0.03527778;fill:#ff6600" />
            <path
               id="path9350"
               d="m 161.56741,118.52082 c 2.01083,-0.74085 3.4572,-2.0461 3.4572,-3.13974 0,-0.9172 -1.12887,-2.2225 -1.94026,-2.2225 -0.28224,0 -0.84667,-0.3175 -1.19944,-0.67027 -0.38806,-0.38807 -1.4464,-0.7761 -2.54,-0.91723 -1.05833,-0.10584 -2.54,-0.38804 -3.31613,-0.59971 -1.8697,-0.4939 -3.73943,-0.59973 -4.51554,-0.21166 -0.77613,0.38803 -0.84666,3.52776 -0.0706,4.16276 0.28223,0.24695 0.52916,0.74085 0.52916,1.09361 0,0.42334 0.7761,1.05834 2.2225,1.905 2.57527,1.41114 4.5861,1.5875 7.37307,0.59974 z"
               inkscape:connector-curvature="0"
               style="stroke-width:0.03527778;fill:#ff6600" />
            <path
               id="path9352"
               d="m 184.78018,118.48554 c 0.28223,-0.17639 1.27,-0.42332 2.15193,-0.52916 3.56307,-0.52916 4.09224,-3.24556 1.09363,-5.50334 -1.72863,-1.3053 -3.59833,-2.11667 -4.90363,-2.11667 -0.42333,0 -0.88193,-0.14113 -0.98776,-0.35279 -0.10584,-0.17637 -1.48167,-0.35277 -2.99861,-0.35277 -2.54,0 -2.82223,0.0706 -3.21029,0.8114 -0.81137,1.48166 -0.70554,3.98637 0.24696,5.36221 0.4586,0.70555 0.84667,1.48166 0.84667,1.72862 0,0.67028 6.8086,1.51693 7.7611,0.9525 z"
               inkscape:connector-curvature="0"
               style="stroke-width:0.03527778;fill:#ff6600" />
            <path
               id="path9394"
               d="m 437.54542,125.36472 c 3.2456,-0.635 4.6567,-1.48168 4.9389,-2.99864 0.1764,-1.02304 0.1059,-1.34054 -0.388,-1.62276 -0.3528,-0.1764 -1.1289,-0.88194 -1.7286,-1.48167 -1.6581,-1.7639 -5.2917,-2.82223 -10.90087,-3.28083 -5.60917,-0.4586 -5.50334,-0.52917 -5.32694,3.73943 0.10583,2.61057 0.24694,3.10447 1.05833,4.1275 0.52917,0.59972 1.30527,1.30529 1.72861,1.55222 0.9525,0.56445 7.72587,0.52918 10.61857,-0.0353 z"
               inkscape:connector-curvature="0"
               style="stroke-width:0.03527778;fill:#ff6600" />
            <path
               id="path9396"
               d="m 390.09685,125.08247 c 0.49389,-0.14109 1.55223,-0.42332 2.32833,-0.635 0.8114,-0.21165 1.905,-0.70555 2.43417,-1.09359 0.81139,-0.6703 0.91723,-0.91723 0.70556,-2.04613 -0.14113,-0.70553 -0.45863,-1.51693 -0.74083,-1.83443 -1.09363,-1.19944 -4.09223,-2.50474 -6.59697,-2.8575 -6.9497,-0.91724 -6.38526,-0.91724 -7.83166,0.0706 -1.16417,0.81137 -1.34054,1.12887 -1.48167,2.57527 -0.10583,1.30527 0.10583,2.0814 0.91723,3.73944 0.59973,1.16416 1.37584,2.18723 1.69334,2.25779 1.02306,0.28221 7.62,0.17637 8.5725,-0.1764 z"
               inkscape:connector-curvature="0"
               style="stroke-width:0.03527778;fill:#ff6600" />
            <path
               id="path9398"
               d="m 366.42545,124.09472 c 3.56306,-0.9878 3.84529,-1.23475 3.56306,-2.8575 -0.1764,-1.02307 -0.70556,-1.79918 -2.0814,-3.06918 -0.98776,-0.91722 -1.79916,-1.65807 -1.79916,-1.5875 0,0.0705 -0.35277,-0.0706 -0.81137,-0.3175 -0.42334,-0.21166 -1.02307,-0.49389 -1.3053,-0.52916 -1.2347,-0.28223 -5.64443,-0.84666 -7.65527,-0.9525 l -2.18723,-0.14113 -0.42333,1.23472 c -0.21167,0.70557 -0.28221,1.86975 -0.17637,2.71641 0.3175,1.83444 1.79916,5.00944 2.46943,5.25637 0.3175,0.14113 1.7639,0.3175 3.28084,0.42333 1.51693,0.10584 3.21026,0.28224 3.81,0.3175 0.56443,0.0706 2.08139,-0.14111 3.3161,-0.49386 z"
               inkscape:connector-curvature="0"
               style="stroke-width:0.03527778;fill:#ff6600" />
            <path
               id="path9400"
               d="m 417.43711,124.12997 c 1.3053,-0.56443 2.04613,-1.69332 1.79917,-2.75165 -0.1411,-0.52917 -0.2822,-1.30528 -0.35277,-1.7286 -0.24693,-1.4464 -3.24556,-3.6689 -4.97416,-3.6689 -0.4939,0 -1.23474,-0.1411 -1.5875,-0.35278 -1.02307,-0.56446 -6.70277,-1.09362 -7.44361,-0.70557 -0.38806,0.21168 -0.635,0.77611 -0.635,1.48168 -0.0706,4.79777 -0.0353,4.97417 0.77611,5.8561 1.48166,1.62279 2.64583,1.94029 7.3025,2.0814 2.43416,0.0706 4.72723,-0.0353 5.11526,-0.21168 z"
               inkscape:connector-curvature="0"
               style="stroke-width:0.03527778;fill:#ff6600" />
            <path
               id="path9402"
               d="m 311.78018,124.20054 c 1.05833,-0.0706 2.18723,-0.38807 2.54,-0.70557 0.3175,-0.28222 0.84667,-0.45859 1.1289,-0.35275 0.24693,0.10582 0.84666,-0.1764 1.27,-0.635 0.635,-0.6703 0.70553,-0.9878 0.42333,-1.34057 -0.24696,-0.28223 -0.3528,-0.56443 -0.24696,-0.635 0.14113,-0.1764 -0.81137,-1.23473 -2.71637,-3.0339 -0.77613,-0.70553 -3.73947,-1.7286 -6.10307,-2.08137 -0.59973,-0.10584 -1.7286,-0.3528 -2.54,-0.56446 -1.23473,-0.3175 -1.65806,-0.2822 -2.3989,0.21166 -0.74083,0.49389 -0.88193,0.84667 -0.88193,2.46946 0,1.02304 0.10583,1.97554 0.24693,2.11668 0.1764,0.1411 0.28224,0.38803 0.28224,0.49386 0.0706,0.9525 1.69333,3.2103 2.54,3.5278 1.27,0.49387 3.98639,0.70554 6.45583,0.52916 z"
               inkscape:connector-curvature="0"
               style="stroke-width:0.03527778;fill:#ff6600" />
            <path
               id="path9404"
               d="m 336.75685,123.38915 c 3.66889,-0.21168 4.02166,-0.3175 4.5861,-1.09361 1.23473,-1.72862 1.19946,-2.43416 -0.24694,-4.16279 -2.15193,-2.54 -3.81,-3.21028 -8.1139,-3.21028 -2.25776,0 -3.56303,0.14111 -3.56303,0.38807 0,0.17638 -0.14113,0.28221 -0.3175,0.17638 -0.1764,-0.10584 -0.4939,0.0353 -0.74084,0.3175 -0.49389,0.59973 -0.21166,4.40973 0.3175,4.7625 0.17637,0.10583 0.38804,0.52916 0.52917,0.9878 0.24694,0.70553 2.61054,2.25775 3.28083,2.11666 0.14111,0 2.08137,-0.14113 4.26861,-0.28223 z"
               inkscape:connector-curvature="0"
               style="stroke-width:0.03527778;fill:#ff6600" />
            <path
               id="path9406"
               d="m 91.470471,120.56692 c 0.9525,-0.35277 2.2225,-0.67027 2.82221,-0.67027 0.56446,-0.0353 1.5875,-0.35277 2.18723,-0.74083 0.635,-0.38807 1.16417,-0.59974 1.16417,-0.4586 0,0.1411 0.38806,-0.14114 0.88193,-0.59975 1.587499,-1.48165 0.9878,-3.13972 -1.65804,-4.69193 -1.09362,-0.635 -2.11666,-0.88196 -3.63362,-0.91723 -4.19804,-0.10584 -7.9375,-0.35277 -8.5725,-0.52917 -0.3175,-0.10583 -0.98777,0.10583 -1.48167,0.4939 -0.81137,0.59971 -0.84667,0.74084 -0.42333,1.905 0.24696,0.70554 0.35279,1.41111 0.24696,1.62278 -0.10584,0.1764 -0.10584,0.35276 0.0705,0.35276 0.28223,0 1.16417,1.65807 1.16417,2.2225 0,0.17639 0.24696,0.56446 0.59973,0.88196 1.905,1.94028 3.59833,2.25778 6.63223,1.12888 z"
               inkscape:connector-curvature="0"
               style="stroke-width:0.03527778;fill:#ff6600" />
            <path
               id="path9408"
               d="m 71.079911,120.07304 c 1.5875,-0.28222 2.46944,-0.67029 3.175,-1.34057 0.88194,-0.88193 0.91723,-1.02305 0.4939,-2.36359 -0.24696,-0.91723 -0.77613,-1.6228 -1.4464,-2.04613 -0.59973,-0.3175 -1.05833,-0.70553 -1.05833,-0.84667 0,-0.49386 -3.56307,-1.19944 -8.32557,-1.5875 -2.32833,-0.21167 -4.55083,0.42333 -4.93887,1.41114 -0.10583,0.2822 -0.0353,1.37582 0.21167,2.46943 0.35277,1.7286 0.56443,2.0461 2.2225,3.28082 1.76387,1.30528 1.94027,1.37585 4.65666,1.41111 1.55221,0 3.81,-0.14111 5.00944,-0.38804 z"
               inkscape:connector-curvature="0"
               style="stroke-width:0.03527778;fill:#ff6600" />
            <path
               id="path9410"
               d="m 50.724641,119.75554 c 1.69333,-0.52916 2.78694,-1.62279 2.89277,-2.89279 0.10583,-1.37583 -0.1764,-1.76387 -1.905,-2.92803 -3.13973,-2.08141 -3.3514,-2.15198 -7.97277,-2.18725 -5.22113,0 -5.50333,0.14111 -5.15056,2.78695 0.3175,2.32833 1.48166,4.3039 2.96333,5.04473 1.4464,0.74082 7.09083,0.84667 9.17223,0.17639 z"
               inkscape:connector-curvature="0"
               style="stroke-width:0.03527778;fill:#ff6600" />
            <path
               id="path9412"
               d="m 108.58018,119.47332 c 3.9511,-0.52917 4.37446,-0.59974 5.36223,-0.635 1.05833,-0.0353 3.9511,-2.3636 3.59833,-2.89278 -0.10583,-0.17639 0,-0.3175 0.1764,-0.3175 0.21164,0 0.635,0.59971 0.91721,1.34054 0.52916,1.23474 0.70556,1.37584 2.57529,1.76389 3.70414,0.77611 6.98497,0.28225 8.85471,-1.27 0.98776,-0.81139 1.12889,-1.09359 0.88193,-2.01082 -0.3175,-1.27 -3.4572,-4.40974 -4.4097,-4.40974 -0.38807,0 -1.05834,-0.17637 -1.48167,-0.38804 -0.42333,-0.24696 -1.97556,-0.45863 -3.45723,-0.52916 -3.45721,-0.14113 -4.2686,0.35276 -4.33917,2.75167 -0.0353,1.37584 -0.10583,1.5522 -0.56443,1.2347 -0.28223,-0.24693 -0.74084,-0.70554 -0.9878,-1.02304 -0.24693,-0.3528 -0.70554,-0.635 -0.98777,-0.635 -0.28223,0 -0.59973,-0.24696 -0.70554,-0.52917 -0.3175,-0.74083 -1.44639,-1.05833 -4.37446,-1.09363 -1.44637,0 -3.45723,-0.1411 -4.40973,-0.3175 -2.46943,-0.35277 -3.10443,0.3528 -3.1397,3.56308 -0.0353,2.11665 0.0353,2.3636 0.9172,3.0339 0.56446,0.38803 0.9878,0.9172 0.9878,1.16416 0,0.52916 1.34056,1.62277 1.94027,1.5522 0.17639,-0.0353 1.37583,-0.17636 2.64583,-0.35276 z"
               inkscape:connector-curvature="0"
               style="stroke-width:0.03527778;fill:#ff6600" />
            <path
               id="path9414"
               d="m -6.4253586,119.12054 c 0.67027,-0.14112 1.83444,-0.42332 2.54,-0.59972 1.83444,-0.4939 4.33917003,-2.54 3.10444003,-2.54 -0.21167,0 -0.35277003,-0.28224 -0.35277003,-0.67028 0,-0.35279 -0.8114,-1.23472 -1.905,-2.04612 -1.79917,-1.37584 -2.11667,-1.48168 -5.67973,-1.86971 -4.8683404,-0.56447 -5.4680704,-0.3175 -5.1858404,2.04611 0.14111,1.65806 0.77611,2.92806 2.29307,4.72722 0.84666,1.05834 2.8575004,1.41111 5.1858304,0.9525 z"
               inkscape:connector-curvature="0"
               style="stroke-width:0.03527778;fill:#ff6600" />
            <path
               id="path9416"
               d="m 24.442681,117.74472 c 1.72863,-0.8114 2.64583,-1.55225 2.64583,-2.0814 0,-0.59974 -2.8222,-3.56308 -4.30387,-4.48028 -1.02306,-0.6703 -1.97556,-0.88196 -4.445,-1.02307 -1.69333,-0.10583 -3.95113,-0.42333 -5.00946,-0.70556 -1.79917,-0.4586 -1.97554,-0.4586 -2.64583,0.1764 -0.42334,0.38806 -0.9524996,1.23473 -1.1994396,1.94027 -0.38806,1.12889 -0.35277,1.37584 0.5644396,3.06917 1.05833,2.04613 2.2225,2.78697 5.15056,3.42197 2.82223,0.635 7.62,0.49386 9.24277,-0.3175 z"
               inkscape:connector-curvature="0"
               style="stroke-width:0.03527778;fill:#ff6600" />
          </g>
          <path
             style="stroke-width:0.03527778;fill:#ff6600"
             inkscape:connector-curvature="0"
             d="m -250.40649,112.20608 c 0.10581,-0.14111 0.98782,-0.35277 1.905,-0.49387 6.20893,-0.9525 8.14922,-1.83447 8.04331,-3.70417 0,-0.45863 -0.1411,-0.84667 -0.28221,-0.84667 -0.1411,0 -0.3175,-0.28223 -0.42328,-0.59973 -0.1411,-0.35277 -1.0936,-1.02306 -2.15201,-1.48167 -1.97549,-0.84666 -3.38659,-1.02306 -9.0311,-1.16416 -2.78689,-0.0706 -3.13971,0 -4.05689,0.8114 -1.27,1.05833 -1.23481,2.46943 0.14111,4.79776 0.70548,1.16417 1.30529,1.69334 2.25779,2.04611 1.86971,0.635 3.35129,0.88196 3.59828,0.635 z"
             id="path9418" />
          <path
             style="stroke-width:0.03527778;fill:#ff6600"
             inkscape:connector-curvature="0"
             d="m -226.20592,111.60637 c 1.44639,-0.21166 2.8575,-0.52916 3.1397,-0.70556 0.24696,-0.1764 1.27,-0.38807 2.29307,-0.52917 1.76389,-0.21167 1.79916,-0.21167 1.905,-1.51693 0.14112,-1.86974 -0.24694,-2.36363 -2.61057,-3.3514 -1.69331,-0.67027 -2.92804,-0.84667 -7.19664,-1.02307 -4.79777,-0.21166 -5.18586,-0.17637 -6.0325,0.4939 -0.7761,0.635 -0.84667,0.91723 -0.70556,2.25777 0.14113,0.9525 0.67029,2.15196 1.41113,3.2103 1.2347,1.65803 1.2347,1.65803 3.175,1.62276 1.09357,-0.0353 3.17497,-0.24693 4.62137,-0.4586 z"
             id="path9420" />
          <path
             style="stroke-width:0.03527778;fill:#ff6600"
             inkscape:connector-curvature="0"
             d="m -269.59759,111.04191 c 0.49392,-0.17637 1.37581,-0.2822 1.97551,-0.3175 1.34059,-0.0353 4.02169,-1.97554 4.02169,-2.89277 0,-0.98777 -0.98779,-2.78693 -1.51688,-2.78693 -0.24701,0 -1.02312,-0.3175 -1.72871,-0.70557 -0.9525,-0.4939 -2.3283,-0.74083 -5.29161,-0.91723 -4.90358,-0.2822 -5.92669,0.0353 -5.92669,1.72863 0,0.635 -0.1764,1.34054 -0.42331,1.5875 -0.3175,0.3175 -0.3175,0.42333 0,0.42333 0.24691,0 0.42331,0.17637 0.42331,0.38804 0,0.21167 0.4233,0.9878 0.9525,1.72863 0.7408,1.02304 1.30529,1.4111 2.25779,1.5875 2.15191,0.38804 4.33922,0.42333 5.2564,0.17637 z"
             id="path9422" />
          <path
             style="stroke-width:0.03527778;fill:#ff6600"
             inkscape:connector-curvature="0"
             d="m -291.29348,110.72441 c 2.18731,-1.37583 3.3867,-3.175 2.64589,-3.91583 -0.10589,-0.10584 -0.3528,-0.49387 -0.56449,-0.88194 -0.21159,-0.38806 -1.2347,-1.02306 -2.29301,-1.4111 -2.46949,-0.9878 -7.62,-2.04613 -8.96059,-1.86973 -1.02299,0.10583 -1.05831,0.1411 -0.9525,1.86973 0.1411,2.15193 1.0936,4.2686 2.5047,5.57387 0.9525,0.88196 1.41121,1.02306 3.81,1.16417 2.2578,0.10583 2.92809,0.0353 3.81,-0.52917 z"
             id="path9424" />
          <path
             style="stroke-width:0.03527778;fill:#ff6600"
             inkscape:connector-curvature="0"
             d="m -509.20428,109.66608 c 2.2931,-0.77611 2.3989,-0.91721 2.6458,-2.68111 0.4939,-3.175 -1.905,-4.55083 -7.5847,-4.33916 -1.8697,0.0353 -3.5278,0.24693 -3.7041,0.38806 -0.4587,0.49387 -0.2823,3.66887 0.2469,4.69194 0.2822,0.4939 1.1642,1.30527 1.9756,1.7639 1.7638,1.02303 3.7747,1.0936 6.4205,0.17637 z"
             id="path9426" />
          <path
             style="stroke-width:0.03527778;fill:#ff6600"
             inkscape:connector-curvature="0"
             d="m -523.59758,109.27804 c 2.9633,-0.635 3.5278,-1.16417 3.5278,-3.31613 0,-1.37583 -0.7762,-2.15194 -3.5278,-3.56304 -1.5522,-0.77613 -2.3989,-0.98779 -4.5861,-1.02306 -3.4573,-0.0353 -3.6689,0.10583 -3.422,2.50473 0.1764,1.83443 0.4939,2.3636 2.8928,5.15054 0.5644,0.635 2.7517,0.77613 5.1153,0.24696 z"
             id="path9428" />
          <path
             style="stroke-width:0.03527778;fill:#ff6600"
             inkscape:connector-curvature="0"
             d="m -317.43428,108.21971 c 0.5645,-0.1764 1.1642,-0.24697 1.3406,-0.14113 0.1411,0.10583 0.2822,0.0353 0.2822,-0.14111 0,-0.21166 0.4586,-0.52916 1.0583,-0.74083 0.5645,-0.1764 1.0584,-0.59973 1.0584,-0.88193 0,-0.3175 0.1411,-0.56447 0.3527,-0.56447 0.635,0 -0.07,-2.29303 -0.9877,-3.06916 -0.4939,-0.42334 -1.6228,-0.9525 -2.5048,-1.16417 -0.8819,-0.24694 -1.8697,-0.49387 -2.1519,-0.5997 -0.8467,-0.3175 -6.7733,-0.52917 -7.9728,-0.28224 -1.023,0.1764 -1.0936,0.28224 -0.9525,1.4464 0.1411,1.37584 1.6228,4.93887 2.4342,5.82084 0.4233,0.4586 1.1994,0.5997 3.7747,0.5997 1.7992,0 3.7042,-0.10583 4.2686,-0.2822 z"
             id="path9430" />
        </g>
        <path
           id="path9434"
           d="m -168.63259,74.458872 c -0.24694,-0.10583 -0.56444,-0.0706 -0.67027,0.0353 -0.14113,0.10583 0.0705,0.21167 0.4586,0.1764 0.38804,0 0.4939,-0.10583 0.21167,-0.21167 z"
           inkscape:connector-curvature="0"
           style="stroke-width:0.03527778" />
        <path
           id="path9432"
           d="m -526.49333,72.5933 c 0.85131,-0.23056 3.82171,-2.39606 3.29261,-2.40629 -0.10578,-0.002 0.11746,-0.59755 0.48383,-1.29616 0.87848,-1.6414 1.37133,-5.23088 0.77914,-5.63044 -0.24344,-0.18114 -1.36872,-0.37931 -2.53066,-0.50762 l -2.1128,-0.21724 -0.91346,-2.02886 c -0.98133,-2.17132 -1.36449,-2.42572 -5.302,-3.17221 -1.93302,-0.39021 -2.14536,-0.35902 -2.93495,0.33139 -0.46669,0.41439 -0.82283,0.58394 -0.81874,0.37231 0.009,-0.45851 -1.91798,-3.00095 -2.30522,-3.04371 -0.14039,-0.038 -1.19042,-0.48172 -2.27427,-0.99663 -1.95809,-0.91997 -2.64583,-1.85063 -1.37607,-1.82609 0.74076,0.0143 4.71839,-1.32021 6.64144,-2.23572 0.78345,-0.37297 1.81444,-0.77645 2.3103,-0.87273 1.66596,-0.39121 2.7839,-1.63984 2.99367,-3.36474 0.13237,-1.37353 0.0677,-1.69234 -0.66252,-2.23572 -0.4517,-0.36157 -1.85367,-0.84735 -3.11935,-1.08352 -2.14536,-0.35902 -2.49878,-0.33057 -6.33193,0.83031 -3.47836,1.06185 -4.43409,1.21981 -6.61894,1.07174 -1.54986,-0.13581 -2.57472,-0.0498 -2.57881,0.16186 -0.004,0.21163 -0.47906,1.04928 -0.98981,1.9215 -0.54615,0.87158 -1.24291,2.2342 -1.53937,2.96944 -0.29714,0.7705 -0.81549,2.03072 -1.2192,2.83447 l -0.66214,1.39857 -1.75608,-0.42207 -1.75675,-0.38679 -0.20732,-2.05049 c -0.24193,-2.08646 -0.70983,-3.43632 -1.27423,-3.44722 -0.14107,-0.003 -0.73384,-0.36702 -1.28927,-0.83644 -0.79898,-0.65056 -1.39584,-0.80326 -3.26529,-0.83939 l -2.29258,-0.0443 -0.31623,1.75811 c -0.95152,5.4154 -1.22369,6.71568 -1.51266,7.06293 -0.18113,0.24348 -1.84291,0.42307 -4.13763,0.48457 -5.82312,0.0639 -6.40729,1.07587 -2.80724,4.67386 1.97372,1.9435 2.42678,2.23455 4.04518,2.47753 1.58312,0.2423 2.10667,0.53467 3.55946,2.0447 0.93392,0.97073 2.04556,1.87433 2.46606,2.02359 0.42049,0.14926 0.87434,0.40504 0.97603,0.61871 0.13698,0.21435 0.41913,0.2198 0.70468,0.0489 0.28566,-0.1709 1.06775,-0.47334 1.74133,-0.63673 1.09953,-0.29631 1.2447,-0.50521 1.51882,-1.91131 0.58908,-3.09363 0.55379,-3.09432 3.32884,-4.27564 2.13529,-0.94669 2.67257,-1.35972 3.00773,-2.27064 0.40984,-1.12116 1.40418,-1.45481 1.70389,-0.53161 0.30176,0.81738 3.40553,2.71215 4.53422,2.73396 2.08091,0.0402 2.14128,0.57064 0.23579,2.4039 -2.12191,2.07605 -3.32936,2.47613 -6.92699,2.4066 -3.38607,-0.0654 -3.46133,0.18009 -1.18186,2.72934 2.41928,2.6225 4.13324,3.3966 7.41411,3.42474 2.96343,0.022 4.80645,-0.4011 5.88364,-1.36824 0.39484,-0.34523 1.14368,-0.75417 1.67687,-0.95557 0.56839,-0.20072 0.99921,-0.58051 1.00398,-0.82742 0.005,-0.24689 0.4036,-0.80372 0.87098,-1.2534 0.4315,-0.41508 1.05018,-1.39108 1.31203,-2.16227 0.26195,-0.77121 0.66078,-1.32803 0.87108,-1.2534 0.2103,0.0746 0.47267,1.10294 0.55528,2.3042 0.0826,1.20128 0.34235,2.37069 0.54914,2.62166 0.1716,0.25031 0.37712,0.57184 0.37371,0.7482 0.0553,0.81262 1.12854,1.85659 2.90617,2.98478 2.05716,1.2747 3.32351,1.47559 5.27436,0.94876 z"
           inkscape:connector-curvature="0"
           style="stroke-width:0.03527778" />
      </g>
    </g>
  </g>
</svg>
